<svg width="204" height="160" viewBox="0 0 204 160" fill="none" xmlns="http://www.w3.org/2000/svg">
<mask id="mask0_204_46" style="mask-type:luminance" maskUnits="userSpaceOnUse" x="0" y="0" width="102" height="159">
<path d="M0 0H101.741V158.866H0V0Z" fill="white"/>
</mask>
<g mask="url(#mask0_204_46)">
<path d="M82.6314 150.907L79.7301 148.006L82.6314 145.105L85.5328 148.006L82.6314 150.907ZM85.5328 131.896L82.6314 128.994L79.7301 131.896L82.6314 134.797L85.5328 131.896ZM85.5328 139.951L82.6314 137.05L79.7301 139.951L82.6314 142.852L85.5328 139.951ZM76.9555 108.118C76.0307 107.193 75.0984 106.268 74.1735 105.344L71.7943 107.723L74.5763 110.505L76.9555 108.118ZM77.3508 115.778L74.5763 112.996L71.7943 115.778L74.5763 118.56L77.3508 115.778ZM85.5328 123.833L82.6314 120.939L79.7301 123.833L82.6314 126.735L85.5328 123.833ZM93.7073 131.896L90.6866 128.875L87.6659 131.896L90.6866 134.916L93.7073 131.896ZM85.0778 116.24C84.1082 115.271 83.1386 114.301 82.1765 113.339L79.7301 115.778L82.6314 118.679L85.0778 116.24ZM68.8332 100.003C67.9457 99.1157 67.0656 98.2356 66.178 97.348L63.8584 99.6676L66.5136 102.323L68.8332 100.003ZM77.3508 148.006L74.5763 145.232L71.7943 148.006L74.5763 150.788L77.3508 148.006ZM93.7073 139.951L90.6866 136.93L87.6659 139.951L90.6866 142.972L93.7073 139.951ZM69.1763 107.723L66.5136 105.06L63.8584 107.723L66.5136 110.378L69.1763 107.723ZM69.1763 115.778L66.5136 113.123L63.8584 115.778L66.5136 118.441L69.1763 115.778ZM77.3508 131.896L74.5763 129.114L71.7943 131.896L74.5763 134.67L77.3508 131.896ZM77.3508 156.069L74.5763 153.287L71.7943 156.069L74.5763 158.843L77.3508 156.069ZM77.3508 123.833L74.5763 121.059L71.7943 123.833L74.5763 126.615L77.3508 123.833ZM77.3508 139.951L74.5763 137.169L71.7943 139.951L74.5763 142.733L77.3508 139.951ZM85.5328 11.0309L82.6314 8.13701L79.7301 11.0309L82.6314 13.9323L85.5328 11.0309ZM52.8198 51.3217L50.4033 48.9051L47.9867 51.3217L50.4033 53.7382L52.8198 51.3217ZM52.8198 67.432L50.4033 65.0155L47.9867 67.432L50.4033 69.856L52.8198 67.432ZM93.1927 124.355C92.1858 123.348 91.1789 122.341 90.172 121.335L87.6659 123.833L90.6866 126.861L93.1927 124.355ZM52.8198 43.2665L50.4033 40.85L47.9867 43.2665L50.4033 45.6831L52.8198 43.2665ZM52.5886 83.781C51.7831 82.9755 50.9776 82.17 50.1721 81.3645L47.9867 83.5498L50.4033 85.9664L52.5886 83.781ZM52.8198 75.4947L50.4033 73.0781L47.9867 75.4947L50.4033 77.9112L52.8198 75.4947ZM52.8198 99.6676L50.4033 97.2436L47.9867 99.6676L50.4033 102.084L52.8198 99.6676ZM52.8198 91.605L50.4033 89.1885L47.9867 91.605L50.4033 94.0216L52.8198 91.605ZM52.8198 27.1487L50.4033 24.7322L47.9867 27.1487L50.4033 29.5653L52.8198 27.1487ZM52.8198 59.3769L50.4033 56.9603L47.9867 59.3769L50.4033 61.7934L52.8198 59.3769ZM52.8198 35.2039L50.4033 32.7873L47.9867 35.2039L50.4033 37.6204L52.8198 35.2039ZM85.5328 19.0935L82.6314 16.1922L79.7301 19.0935L82.6314 21.9949L85.5328 19.0935ZM93.7073 27.1487L90.6866 24.128L87.6659 27.1487L90.6866 30.1694L93.7073 27.1487ZM101.315 132.47C100.263 131.426 99.2191 130.374 98.1675 129.33L95.6018 131.896L98.7492 135.036L101.315 132.47ZM93.7073 19.0935L90.6866 16.0728L87.6659 19.0935L90.6866 22.1142L93.7073 19.0935ZM85.5328 35.2039L82.6314 32.3025L79.7301 35.2039L82.6314 38.1052L85.5328 35.2039ZM85.5328 27.1487L82.6314 24.2474L79.7301 27.1487L82.6314 30.0501L85.5328 27.1487ZM69.1763 123.833L66.5136 121.178L63.8584 123.833L66.5136 126.496L69.1763 123.833ZM85.503 43.2292L82.6314 40.3652L79.7301 43.2665L82.6016 46.1306C83.5712 45.1684 84.5334 44.1988 85.503 43.2292ZM69.1763 27.1487L66.5136 24.4935L63.8584 27.1487L66.5136 29.8114L69.1763 27.1487ZM69.1763 131.896L66.5136 129.233L63.8584 131.896L66.5136 134.551L69.1763 131.896ZM69.1763 11.0309L66.5136 8.37568L63.8584 11.0309L66.5136 13.6936L69.1763 11.0309ZM69.1763 43.2665L66.5136 40.6038L63.8584 43.2665L66.5136 45.9217L69.1763 43.2665ZM69.1763 19.0935L66.5136 16.4309L63.8584 19.0935L66.5136 21.7488L69.1763 19.0935ZM77.3508 11.0309L74.5763 8.25634L71.7943 11.0309L74.5763 13.8129L77.3508 11.0309ZM69.1763 59.3769L66.5136 56.7216L63.8584 59.3769L66.5136 62.0395L69.1763 59.3769ZM69.1763 51.3217L66.5136 48.659L63.8584 51.3217L66.5136 53.9769L69.1763 51.3217ZM60.9944 27.1487L58.4585 24.6128L55.9226 27.1487L58.4585 29.6846L60.9944 27.1487ZM60.9944 67.432L58.4585 64.8961L55.9226 67.432L58.4585 69.9754L60.9944 67.432ZM77.3508 2.97573L74.5763 0.201172L71.7943 2.97573L74.5763 5.75775L77.3508 2.97573ZM60.9944 35.2039L58.4585 32.668L55.9226 35.2039L58.4585 37.7472L60.9944 35.2039ZM60.9944 19.0935L58.4585 16.5502L55.9226 19.0935L58.4585 21.6294L60.9944 19.0935ZM60.9944 43.2665L58.4585 40.7232L55.9226 43.2665L58.4585 45.8024L60.9944 43.2665ZM60.9944 59.3769L58.4585 56.841L55.9226 59.3769L58.4585 61.9127L60.9944 59.3769ZM60.9944 51.3217L58.4585 48.7858L55.9226 51.3217L58.4585 53.8576L60.9944 51.3217ZM69.1763 35.2039L66.5136 32.5487L63.8584 35.2039L66.5136 37.8666L69.1763 35.2039ZM60.9944 99.6676L58.4585 97.1243L55.9226 99.6676L58.4585 102.204L60.9944 99.6676ZM60.9944 107.723L58.4585 105.187L55.9226 107.723L58.4585 110.259L60.9944 107.723ZM60.9944 115.778L58.4585 113.242L55.9226 115.778L58.4585 118.314L60.9944 115.778ZM77.3508 19.0935L74.5763 16.3115L71.7943 19.0935L74.5763 21.8681L77.3508 19.0935ZM60.7109 91.8884C59.8681 91.0456 59.0179 90.2028 58.175 89.3525L55.9226 91.605L58.4585 94.1484L60.7109 91.8884ZM69.1763 148.006L66.5136 145.351L63.8584 148.006L66.5136 150.669L69.1763 148.006ZM60.9944 139.951L58.4585 137.415L55.9226 139.951L58.4585 142.487L60.9944 139.951ZM69.1763 139.951L66.5136 137.288L63.8584 139.951L66.5136 142.606L69.1763 139.951ZM60.9944 123.833L58.4585 121.297L55.9226 123.833L58.4585 126.376L60.9944 123.833ZM60.9944 131.896L58.4585 129.352L55.9226 131.896L58.4585 134.432L60.9944 131.896ZM77.3508 43.2665L74.5763 40.4845L71.7943 43.2665L74.5763 46.0411L77.3508 43.2665ZM77.3508 51.3217L74.5763 48.5397L71.7943 51.3217L74.5763 54.1037L77.3508 51.3217ZM77.3508 27.1487L74.5763 24.3667L71.7943 27.1487L74.5763 29.9307L77.3508 27.1487ZM77.3508 35.2039L74.5763 32.4293L71.7943 35.2039L74.5763 37.9859L77.3508 35.2039ZM101.74 26.9995L98.7492 24.0087L95.6018 27.1487L98.5926 30.1396C99.6443 29.0954 100.688 28.0437 101.74 26.9995ZM52.8198 107.723L50.4033 105.306L47.9867 107.723L50.4033 110.139L52.8198 107.723ZM93.6178 35.1144L90.6866 32.1832L87.6659 35.2039L90.5971 38.1351C91.604 37.1282 92.6109 36.1213 93.6178 35.1144ZM28.2889 91.605L26.2303 89.5539L24.1792 91.605L26.2303 93.6635L28.2889 91.605ZM36.4634 99.6676L34.2855 97.4898L32.1151 99.6676L34.2855 101.838L36.4634 99.6676ZM36.4634 115.778L34.2855 113.6L32.1151 115.778L34.2855 117.956L36.4634 115.778ZM36.4634 83.5498L34.2855 81.372L32.1151 83.5498L34.2855 85.7277L36.4634 83.5498ZM36.4634 91.605L34.2855 89.4346L32.1151 91.605L34.2855 93.7829L36.4634 91.605ZM44.6453 51.3217L42.3481 49.0245L40.0509 51.3217L42.3481 53.6189L44.6453 51.3217ZM44.6453 35.2039L42.3481 32.9067L40.0509 35.2039L42.3481 37.5011L44.6453 35.2039ZM44.6453 43.2665L42.3481 40.9693L40.0509 43.2665L42.3481 45.5563L44.6453 43.2665ZM36.4634 107.723L34.2855 105.545L32.1151 107.723L34.2855 109.901L36.4634 107.723ZM36.4634 75.4947L34.2855 73.3168L32.1151 75.4947L34.2855 77.6651L36.4634 75.4947ZM36.4634 51.3217L34.2855 49.1438L32.1151 51.3217L34.2855 53.4996L36.4634 51.3217ZM28.2889 107.723L26.2303 105.664L24.1792 107.723L26.2303 109.774L28.2889 107.723ZM28.2889 99.6676L26.2303 97.6091L24.1792 99.6676L26.2303 101.719L28.2889 99.6676ZM28.2889 83.5498L26.2303 81.4987L24.1792 83.5498L26.2303 85.6009L28.2889 83.5498ZM36.4634 43.2665L34.2855 41.0886L32.1151 43.2665L34.2855 45.4369L36.4634 43.2665ZM36.4634 67.432L34.2855 65.2616L32.1151 67.432L34.2855 69.6099L36.4634 67.432ZM36.4634 59.3769L34.2855 57.199L32.1151 59.3769L34.2855 61.5547L36.4634 59.3769ZM44.6453 59.3769L42.3481 57.0796L40.0509 59.3769L42.3481 61.6741L44.6453 59.3769ZM44.6453 83.5498L42.3481 81.2526L40.0509 83.5498L42.3481 85.847L44.6453 83.5498ZM44.6453 91.605L42.3481 89.3078L40.0509 91.605L42.3481 93.9022L44.6453 91.605ZM44.6453 75.4947L42.3481 73.1974L40.0509 75.4947L42.3481 77.7919L44.6453 75.4947ZM52.8198 115.778L50.4033 113.361L47.9867 115.778L50.4033 118.195L52.8198 115.778ZM44.6453 67.432L42.3481 65.1423L40.0509 67.432L42.3481 69.7292L44.6453 67.432ZM44.6453 99.6676L42.3481 97.3704L40.0509 99.6676L42.3481 101.957L44.6453 99.6676ZM44.6453 115.778L42.3481 113.481L40.0509 115.778L42.3481 118.075L44.6453 115.778ZM44.6453 107.723L42.3481 105.426L40.0509 107.723L42.3481 110.02L44.6453 107.723ZM44.6453 123.833L42.3481 121.543L40.0509 123.833L42.3481 126.13L44.6453 123.833ZM52.8198 131.896L50.4033 129.479L47.9867 131.896L50.4033 134.312L52.8198 131.896ZM0.364258 83.5498L2.05734 85.2429L3.75041 83.5498L2.05734 81.8568L0.364258 83.5498ZM52.8198 123.833L50.4033 121.417L47.9867 123.833L50.4033 126.25L52.8198 123.833ZM20.1069 59.3769L18.1751 57.4451L16.2434 59.3769L18.1751 61.3086L20.1069 59.3769ZM20.1069 91.605L18.1751 89.6733L16.2434 91.605L18.1751 93.5442L20.1069 91.605ZM3.75041 75.4947L2.05734 73.8016L0.364258 75.4947L2.05734 77.1877L3.75041 75.4947ZM20.1069 83.5498L18.1751 81.6181L16.2434 83.5498L18.1751 85.4816L20.1069 83.5498ZM28.2889 59.3769L26.2303 57.3258L24.1792 59.3769L26.2303 61.4354L28.2889 59.3769ZM28.2889 67.432L26.2303 65.3809L24.1792 67.432L26.2303 69.4906L28.2889 67.432ZM28.2889 51.3217L26.2303 49.2631L24.1792 51.3217L26.2303 53.3728L28.2889 51.3217ZM20.1069 75.4947L18.1751 73.5555L16.2434 75.4947L18.1751 77.4264L20.1069 75.4947ZM20.1069 99.6676L18.1751 97.7284L16.2434 99.6676L18.1751 101.599L20.1069 99.6676ZM11.9324 75.4947L10.12 73.6822L8.30009 75.4947L10.12 77.3071L11.9324 75.4947ZM11.9324 67.432L10.12 65.6196L8.30009 67.432L10.12 69.2519L11.9324 67.432ZM11.9324 83.5498L10.12 81.7374L8.30009 83.5498L10.12 85.3622L11.9324 83.5498ZM28.2889 75.4947L26.2303 73.4361L24.1792 75.4947L26.2303 77.5457L28.2889 75.4947ZM11.9324 91.605L10.12 89.7926L8.30009 91.605L10.12 93.4174L11.9324 91.605ZM20.1069 67.432L18.1751 65.5003L16.2434 67.432L18.1751 69.3712L20.1069 67.432Z" fill="#FF852E"/>
</g>
<mask id="mask1_204_46" style="mask-type:luminance" maskUnits="userSpaceOnUse" x="102" y="0" width="102" height="160">
<path d="M102.148 0.226074H203.89V159.092H102.148V0.226074Z" fill="white"/>
</mask>
<g mask="url(#mask1_204_46)">
<path d="M184.78 151.134L181.879 148.232L184.78 145.331L187.681 148.232L184.78 151.134ZM187.681 132.122L184.78 129.221L181.879 132.122L184.78 135.023L187.681 132.122ZM187.681 140.177L184.78 137.276L181.879 140.177L184.78 143.078L187.681 140.177ZM179.104 108.344C178.179 107.419 177.247 106.494 176.322 105.57L173.943 107.949L176.725 110.731L179.104 108.344ZM179.499 116.004L176.725 113.222L173.943 116.004L176.725 118.786L179.499 116.004ZM187.681 124.059L184.78 121.165L181.879 124.059L184.78 126.961L187.681 124.059ZM195.856 132.122L192.835 129.101L189.814 132.122L192.835 135.143L195.856 132.122ZM187.226 116.466C186.257 115.497 185.287 114.527 184.325 113.565L181.879 116.004L184.78 118.905L187.226 116.466ZM170.982 100.229C170.094 99.3418 169.214 98.4617 168.326 97.5741L166.007 99.8937L168.662 102.549L170.982 100.229ZM179.499 148.232L176.725 145.458L173.943 148.232L176.725 151.014L179.499 148.232ZM195.856 140.177L192.835 137.156L189.814 140.177L192.835 143.198L195.856 140.177ZM171.325 107.949L168.662 105.286L166.007 107.949L168.662 110.604L171.325 107.949ZM171.325 116.004L168.662 113.349L166.007 116.004L168.662 118.667L171.325 116.004ZM179.499 132.122L176.725 129.34L173.943 132.122L176.725 134.896L179.499 132.122ZM179.499 156.295L176.725 153.513L173.943 156.295L176.725 159.069L179.499 156.295ZM179.499 124.059L176.725 121.285L173.943 124.059L176.725 126.841L179.499 124.059ZM179.499 140.177L176.725 137.395L173.943 140.177L176.725 142.959L179.499 140.177ZM187.681 11.257L184.78 8.36308L181.879 11.257L184.78 14.1583L187.681 11.257ZM154.968 51.5478L152.552 49.1312L150.135 51.5478L152.552 53.9643L154.968 51.5478ZM154.968 67.6581L152.552 65.2416L150.135 67.6581L152.552 70.0821L154.968 67.6581ZM195.341 124.581C194.334 123.574 193.327 122.568 192.32 121.561L189.814 124.059L192.835 127.087L195.341 124.581ZM154.968 43.4926L152.552 41.076L150.135 43.4926L152.552 45.9091L154.968 43.4926ZM154.737 84.0071C153.932 83.2016 153.126 82.3961 152.321 81.5906L150.135 83.7759L152.552 86.1925L154.737 84.0071ZM154.968 75.7207L152.552 73.3042L150.135 75.7207L152.552 78.1373L154.968 75.7207ZM154.968 99.8937L152.552 97.4697L150.135 99.8937L152.552 102.31L154.968 99.8937ZM154.968 91.8311L152.552 89.4145L150.135 91.8311L152.552 94.2476L154.968 91.8311ZM154.968 27.3748L152.552 24.9582L150.135 27.3748L152.552 29.7913L154.968 27.3748ZM154.968 59.6029L152.552 57.1864L150.135 59.6029L152.552 62.0195L154.968 59.6029ZM154.968 35.43L152.552 33.0134L150.135 35.43L152.552 37.8465L154.968 35.43ZM187.681 19.3196L184.78 16.4183L181.879 19.3196L184.78 22.221L187.681 19.3196ZM195.856 27.3748L192.835 24.3541L189.814 27.3748L192.835 30.3955L195.856 27.3748ZM203.463 132.696C202.412 131.652 201.368 130.6 200.316 129.556L197.75 132.122L200.898 135.262L203.463 132.696ZM195.856 19.3196L192.835 16.2989L189.814 19.3196L192.835 22.3403L195.856 19.3196ZM187.681 35.43L184.78 32.5286L181.879 35.43L184.78 38.3313L187.681 35.43ZM187.681 27.3748L184.78 24.4734L181.879 27.3748L184.78 30.2761L187.681 27.3748ZM171.325 124.059L168.662 121.404L166.007 124.059L168.662 126.722L171.325 124.059ZM187.651 43.4553L184.78 40.5912L181.879 43.4926L184.75 46.3566C185.72 45.3945 186.682 44.4249 187.651 43.4553ZM171.325 27.3748L168.662 24.7196L166.007 27.3748L168.662 30.0375L171.325 27.3748ZM171.325 132.122L168.662 129.459L166.007 132.122L168.662 134.777L171.325 132.122ZM171.325 11.257L168.662 8.60175L166.007 11.257L168.662 13.9197L171.325 11.257ZM171.325 43.4926L168.662 40.8299L166.007 43.4926L168.662 46.1478L171.325 43.4926ZM171.325 19.3196L168.662 16.6569L166.007 19.3196L168.662 21.9748L171.325 19.3196ZM179.499 11.257L176.725 8.48242L173.943 11.257L176.725 14.039L179.499 11.257ZM171.325 59.6029L168.662 56.9477L166.007 59.6029L168.662 62.2656L171.325 59.6029ZM171.325 51.5478L168.662 48.8851L166.007 51.5478L168.662 54.203L171.325 51.5478ZM163.143 27.3748L160.607 24.8389L158.071 27.3748L160.607 29.9107L163.143 27.3748ZM163.143 67.6581L160.607 65.1222L158.071 67.6581L160.607 70.2014L163.143 67.6581ZM179.499 3.20181L176.725 0.427246L173.943 3.20181L176.725 5.98382L179.499 3.20181ZM163.143 35.43L160.607 32.8941L158.071 35.43L160.607 37.9733L163.143 35.43ZM163.143 19.3196L160.607 16.7763L158.071 19.3196L160.607 21.8555L163.143 19.3196ZM163.143 43.4926L160.607 40.9492L158.071 43.4926L160.607 46.0285L163.143 43.4926ZM163.143 59.6029L160.607 57.067L158.071 59.6029L160.607 62.1388L163.143 59.6029ZM163.143 51.5478L160.607 49.0119L158.071 51.5478L160.607 54.0836L163.143 51.5478ZM171.325 35.43L168.662 32.7747L166.007 35.43L168.662 38.0926L171.325 35.43ZM163.143 99.8937L160.607 97.3504L158.071 99.8937L160.607 102.43L163.143 99.8937ZM163.143 107.949L160.607 105.413L158.071 107.949L160.607 110.485L163.143 107.949ZM163.143 116.004L160.607 113.468L158.071 116.004L160.607 118.54L163.143 116.004ZM179.499 19.3196L176.725 16.5376L173.943 19.3196L176.725 22.0942L179.499 19.3196ZM162.859 92.1145C162.017 91.2717 161.166 90.4289 160.323 89.5786L158.071 91.8311L160.607 94.3744L162.859 92.1145ZM171.325 148.232L168.662 145.577L166.007 148.232L168.662 150.895L171.325 148.232ZM163.143 140.177L160.607 137.641L158.071 140.177L160.607 142.713L163.143 140.177ZM171.325 140.177L168.662 137.514L166.007 140.177L168.662 142.832L171.325 140.177ZM163.143 124.059L160.607 121.523L158.071 124.059L160.607 126.603L163.143 124.059ZM163.143 132.122L160.607 129.579L158.071 132.122L160.607 134.658L163.143 132.122ZM179.499 43.4926L176.725 40.7106L173.943 43.4926L176.725 46.2671L179.499 43.4926ZM179.499 51.5478L176.725 48.7657L173.943 51.5478L176.725 54.3298L179.499 51.5478ZM179.499 27.3748L176.725 24.5928L173.943 27.3748L176.725 30.1568L179.499 27.3748ZM179.499 35.43L176.725 32.6554L173.943 35.43L176.725 38.212L179.499 35.43ZM203.889 27.2256L200.898 24.2348L197.75 27.3748L200.741 30.3656C201.793 29.3214 202.837 28.2698 203.889 27.2256ZM154.968 107.949L152.552 105.532L150.135 107.949L152.552 110.365L154.968 107.949ZM195.766 35.3405L192.835 32.4093L189.814 35.43L192.746 38.3611C193.752 37.3542 194.759 36.3473 195.766 35.3405ZM130.437 91.8311L128.379 89.78L126.328 91.8311L128.379 93.8896L130.437 91.8311ZM138.612 99.8937L136.434 97.7158L134.264 99.8937L136.434 102.064L138.612 99.8937ZM138.612 116.004L136.434 113.826L134.264 116.004L136.434 118.182L138.612 116.004ZM138.612 83.7759L136.434 81.598L134.264 83.7759L136.434 85.9538L138.612 83.7759ZM138.612 91.8311L136.434 89.6607L134.264 91.8311L136.434 94.009L138.612 91.8311ZM146.794 51.5478L144.497 49.2505L142.199 51.5478L144.497 53.845L146.794 51.5478ZM146.794 35.43L144.497 33.1327L142.199 35.43L144.497 37.7272L146.794 35.43ZM146.794 43.4926L144.497 41.1954L142.199 43.4926L144.497 45.7823L146.794 43.4926ZM138.612 107.949L136.434 105.771L134.264 107.949L136.434 110.127L138.612 107.949ZM138.612 75.7207L136.434 73.5429L134.264 75.7207L136.434 77.8912L138.612 75.7207ZM138.612 51.5478L136.434 49.3699L134.264 51.5478L136.434 53.7256L138.612 51.5478ZM130.437 107.949L128.379 105.89L126.328 107.949L128.379 110L130.437 107.949ZM130.437 99.8937L128.379 97.8352L126.328 99.8937L128.379 101.945L130.437 99.8937ZM130.437 83.7759L128.379 81.7248L126.328 83.7759L128.379 85.827L130.437 83.7759ZM138.612 43.4926L136.434 41.3147L134.264 43.4926L136.434 45.663L138.612 43.4926ZM138.612 67.6581L136.434 65.4877L134.264 67.6581L136.434 69.836L138.612 67.6581ZM138.612 59.6029L136.434 57.4251L134.264 59.6029L136.434 61.7808L138.612 59.6029ZM146.794 59.6029L144.497 57.3057L142.199 59.6029L144.497 61.9001L146.794 59.6029ZM146.794 83.7759L144.497 81.4787L142.199 83.7759L144.497 86.0731L146.794 83.7759ZM146.794 91.8311L144.497 89.5339L142.199 91.8311L144.497 94.1283L146.794 91.8311ZM146.794 75.7207L144.497 73.4235L142.199 75.7207L144.497 78.0179L146.794 75.7207ZM154.968 116.004L152.552 113.588L150.135 116.004L152.552 118.421L154.968 116.004ZM146.794 67.6581L144.497 65.3683L142.199 67.6581L144.497 69.9553L146.794 67.6581ZM146.794 99.8937L144.497 97.5965L142.199 99.8937L144.497 102.183L146.794 99.8937ZM146.794 116.004L144.497 113.707L142.199 116.004L144.497 118.301L146.794 116.004ZM146.794 107.949L144.497 105.652L142.199 107.949L144.497 110.246L146.794 107.949ZM146.794 124.059L144.497 121.769L142.199 124.059L144.497 126.356L146.794 124.059ZM154.968 132.122L152.552 129.705L150.135 132.122L152.552 134.538L154.968 132.122ZM102.513 83.7759L104.206 85.469L105.899 83.7759L104.206 82.0828L102.513 83.7759ZM154.968 124.059L152.552 121.643L150.135 124.059L152.552 126.476L154.968 124.059ZM122.255 59.6029L120.324 57.6712L118.392 59.6029L120.324 61.5347L122.255 59.6029ZM122.255 91.8311L120.324 89.8993L118.392 91.8311L120.324 93.7703L122.255 91.8311ZM105.899 75.7207L104.206 74.0277L102.513 75.7207L104.206 77.4138L105.899 75.7207ZM122.255 83.7759L120.324 81.8442L118.392 83.7759L120.324 85.7077L122.255 83.7759ZM130.437 59.6029L128.379 57.5518L126.328 59.6029L128.379 61.6615L130.437 59.6029ZM130.437 67.6581L128.379 65.607L126.328 67.6581L128.379 69.7166L130.437 67.6581ZM130.437 51.5478L128.379 49.4892L126.328 51.5478L128.379 53.5988L130.437 51.5478ZM122.255 75.7207L120.324 73.7815L118.392 75.7207L120.324 77.6525L122.255 75.7207ZM122.255 99.8937L120.324 97.9545L118.392 99.8937L120.324 101.825L122.255 99.8937ZM114.081 75.7207L112.268 73.9083L110.449 75.7207L112.268 77.5331L114.081 75.7207ZM114.081 67.6581L112.268 65.8457L110.449 67.6581L112.268 69.478L114.081 67.6581ZM114.081 83.7759L112.268 81.9635L110.449 83.7759L112.268 85.5883L114.081 83.7759ZM130.437 75.7207L128.379 73.6622L126.328 75.7207L128.379 77.7718L130.437 75.7207ZM114.081 91.8311L112.268 90.0187L110.449 91.8311L112.268 93.6435L114.081 91.8311ZM122.255 67.6581L120.324 65.7264L118.392 67.6581L120.324 69.5973L122.255 67.6581Z" fill="#FF852E"/>
</g>
</svg>
