<svg width="204" height="160" viewBox="0 0 204 160" fill="none" xmlns="http://www.w3.org/2000/svg">
<mask id="mask0_204_35" style="mask-type:luminance" maskUnits="userSpaceOnUse" x="102" y="0" width="102" height="160">
<path d="M102.039 0H203.78V159.015H102.039V0Z" fill="white"/>
</mask>
<g mask="url(#mask0_204_35)">
<path d="M121.148 7.9583L124.049 10.8522L121.148 13.7535L118.246 10.8522L121.148 7.9583ZM118.246 26.97L121.148 29.8714L124.049 26.97L121.148 24.0686L118.246 26.97ZM118.246 18.9148L121.148 21.8162L124.049 18.9148L121.148 16.0135L118.246 18.9148ZM126.824 50.7402C127.748 51.6725 128.673 52.5974 129.606 53.5222L131.985 51.143L129.203 48.361L126.824 50.7402ZM126.421 43.0878L129.203 45.8624L131.985 43.0878L129.203 40.3058L126.421 43.0878ZM118.246 35.0252L121.148 37.9265L124.049 35.0252L121.148 32.1238L118.246 35.0252ZM110.064 26.97L113.085 29.9907L116.113 26.97L113.085 23.9493L110.064 26.97ZM118.701 42.6254C119.671 43.595 120.641 44.5571 121.603 45.5267L124.049 43.0878L121.148 40.1864L118.701 42.6254ZM134.938 58.8551C135.826 59.7426 136.714 60.6302 137.601 61.5177L139.921 59.1981L137.258 56.5429L134.938 58.8551ZM126.421 10.8522L129.203 13.6342L131.985 10.8522L129.203 8.07763L126.421 10.8522ZM110.064 18.9148L113.085 21.9355L116.113 18.9148L113.085 15.8941L110.064 18.9148ZM134.603 51.143L137.258 53.7982L139.921 51.143L137.258 48.4803L134.603 51.143ZM134.603 43.0878L137.258 45.743L139.921 43.0878L137.258 40.4251L134.603 43.0878ZM126.421 26.97L129.203 29.752L131.985 26.97L129.203 24.188L126.421 26.97ZM126.421 2.79702L129.203 5.57904L131.985 2.79702L129.203 0.0224609L126.421 2.79702ZM126.421 35.0252L129.203 37.8072L131.985 35.0252L129.203 32.2506L126.421 35.0252ZM126.421 18.9148L129.203 21.6894L131.985 18.9148L129.203 16.1328L126.421 18.9148ZM118.246 147.827L121.148 150.729L124.049 147.827L121.148 144.926L118.246 147.827ZM150.959 107.544L153.376 109.961L155.792 107.544L153.376 105.128L150.959 107.544ZM150.959 91.4263L153.376 93.8428L155.792 91.4263L153.376 89.0097L150.959 91.4263ZM110.586 34.5105C111.593 35.5174 112.6 36.5243 113.607 37.5312L116.113 35.0252L113.085 32.0045L110.586 34.5105ZM150.959 115.599L153.376 118.016L155.792 115.599L153.376 113.183L150.959 115.599ZM151.191 75.0847C151.996 75.8903 152.802 76.6958 153.607 77.5013L155.792 75.3159L153.376 72.8994L151.191 75.0847ZM150.959 83.3711L153.376 85.7877L155.792 83.3711L153.376 80.9546L150.959 83.3711ZM150.959 59.1981L153.376 61.6147L155.792 59.1981L153.376 56.7816L150.959 59.1981ZM150.959 67.2533L153.376 69.6773L155.792 67.2533L153.376 64.8368L150.959 67.2533ZM150.959 131.717L153.376 134.134L155.792 131.717L153.376 129.301L150.959 131.717ZM150.959 99.4889L153.376 101.905L155.792 99.4889L153.376 97.0649L150.959 99.4889ZM150.959 123.654L153.376 126.071L155.792 123.654L153.376 121.238L150.959 123.654ZM118.246 139.772L121.148 142.674L124.049 139.772L121.148 136.871L118.246 139.772ZM110.064 131.717L113.085 134.738L116.113 131.717L113.085 128.696L110.064 131.717ZM102.464 26.3957C103.516 27.4399 104.56 28.4915 105.612 29.5357L108.17 26.97L105.03 23.83L102.464 26.3957ZM110.064 139.772L113.085 142.793L116.113 139.772L113.085 136.752L110.064 139.772ZM118.246 123.654L121.148 126.556L124.049 123.654L121.148 120.753L118.246 123.654ZM118.246 131.717L121.148 134.618L124.049 131.717L121.148 128.816L118.246 131.717ZM134.603 35.0252L137.258 37.6879L139.921 35.0252L137.258 32.3699L134.603 35.0252ZM118.276 115.629L121.148 118.501L124.049 115.599L121.178 112.728C120.208 113.697 119.246 114.667 118.276 115.629ZM134.603 131.717L137.258 134.372L139.921 131.717L137.258 129.054L134.603 131.717ZM134.603 26.97L137.258 29.6327L139.921 26.97L137.258 24.3148L134.603 26.97ZM134.603 147.827L137.258 150.49L139.921 147.827L137.258 145.172L134.603 147.827ZM134.603 115.599L137.258 118.262L139.921 115.599L137.258 112.944L134.603 115.599ZM134.603 139.772L137.258 142.427L139.921 139.772L137.258 137.11L134.603 139.772ZM126.421 147.827L129.203 150.609L131.985 147.827L129.203 145.053L126.421 147.827ZM134.603 99.4889L137.258 102.144L139.921 99.4889L137.258 96.8262L134.603 99.4889ZM134.603 107.544L137.258 110.199L139.921 107.544L137.258 104.881L134.603 107.544ZM142.777 131.717L145.321 134.253L147.857 131.717L145.321 129.174L142.777 131.717ZM142.777 91.4263L145.321 93.9696L147.857 91.4263L145.321 88.8904L142.777 91.4263ZM126.421 155.89L129.203 158.665L131.985 155.89L129.203 153.108L126.421 155.89ZM142.777 123.654L145.321 126.198L147.857 123.654L145.321 121.119L142.777 123.654ZM142.777 139.772L145.321 142.308L147.857 139.772L145.321 137.236L142.777 139.772ZM142.777 115.599L145.321 118.135L147.857 115.599L145.321 113.063L142.777 115.599ZM142.777 99.4889L145.321 102.025L147.857 99.4889L145.321 96.9456L142.777 99.4889ZM142.777 107.544L145.321 110.08L147.857 107.544L145.321 105.008L142.777 107.544ZM134.603 123.654L137.258 126.317L139.921 123.654L137.258 120.999L134.603 123.654ZM142.777 59.1981L145.321 61.734L147.857 59.1981L145.321 56.6623L142.777 59.1981ZM142.777 51.143L145.321 53.6789L147.857 51.143L145.321 48.6071L142.777 51.143ZM142.777 43.0878L145.321 45.6237L147.857 43.0878L145.321 40.5445L142.777 43.0878ZM126.421 139.772L129.203 142.554L131.985 139.772L129.203 136.99L126.421 139.772ZM143.061 66.9699C143.911 67.8202 144.754 68.663 145.604 69.5058L147.857 67.2533L145.321 64.7174L143.061 66.9699ZM134.603 10.8522L137.258 13.5149L139.921 10.8522L137.258 8.19697L134.603 10.8522ZM142.777 18.9148L145.321 21.4507L147.857 18.9148L145.321 16.3715L142.777 18.9148ZM134.603 18.9148L137.258 21.57L139.921 18.9148L137.258 16.2521L134.603 18.9148ZM142.777 35.0252L145.321 37.5685L147.857 35.0252L145.321 32.4893L142.777 35.0252ZM142.777 26.97L145.321 29.5059L147.857 26.97L145.321 24.4341L142.777 26.97ZM126.421 115.599L129.203 118.381L131.985 115.599L129.203 112.817L126.421 115.599ZM126.421 107.544L129.203 110.326L131.985 107.544L129.203 104.762L126.421 107.544ZM126.421 131.717L129.203 134.492L131.985 131.717L129.203 128.935L126.421 131.717ZM126.421 123.654L129.203 126.436L131.985 123.654L129.203 120.88L126.421 123.654ZM102.039 131.866L105.03 134.857L108.17 131.717L105.179 128.726C104.135 129.77 103.083 130.815 102.039 131.866ZM150.959 51.143L153.376 53.5595L155.792 51.143L153.376 48.7264L150.959 51.143ZM110.154 123.751L113.085 126.683L116.113 123.654L113.182 120.723C112.175 121.73 111.168 122.737 110.154 123.751ZM175.49 67.2533L177.549 69.3119L179.6 67.2533L177.549 65.2022L175.49 67.2533ZM167.316 59.1981L169.486 61.376L171.664 59.1981L169.486 57.0203L167.316 59.1981ZM167.316 43.0878L169.486 45.2582L171.664 43.0878L169.486 40.9099L167.316 43.0878ZM167.316 75.3159L169.486 77.4864L171.664 75.3159L169.486 73.1381L167.316 75.3159ZM167.316 67.2533L169.486 69.4312L171.664 67.2533L169.486 65.0829L167.316 67.2533ZM159.134 107.544L161.431 109.841L163.728 107.544L161.431 105.247L159.134 107.544ZM159.134 123.654L161.431 125.952L163.728 123.654L161.431 121.365L159.134 123.654ZM159.134 115.599L161.431 117.896L163.728 115.599L161.431 113.302L159.134 115.599ZM167.316 51.143L169.486 53.3209L171.664 51.143L169.486 48.9651L167.316 51.143ZM167.316 83.3711L169.486 85.549L171.664 83.3711L169.486 81.1932L167.316 83.3711ZM167.316 107.544L169.486 109.722L171.664 107.544L169.486 105.366L167.316 107.544ZM175.49 51.143L177.549 53.1941L179.6 51.143L177.549 49.0844L175.49 51.143ZM175.49 59.1981L177.549 61.2567L179.6 59.1981L177.549 57.1471L175.49 59.1981ZM175.49 75.3159L177.549 77.367L179.6 75.3159L177.549 73.2574L175.49 75.3159ZM167.316 115.599L169.486 117.777L171.664 115.599L169.486 113.421L167.316 115.599ZM167.316 91.4263L169.486 93.6042L171.664 91.4263L169.486 89.2559L167.316 91.4263ZM167.316 99.4889L169.486 101.659L171.664 99.4889L169.486 97.311L167.316 99.4889ZM159.134 99.4889L161.431 101.779L163.728 99.4889L161.431 97.1917L159.134 99.4889ZM159.134 75.3159L161.431 77.6132L163.728 75.3159L161.431 73.0187L159.134 75.3159ZM159.134 67.2533L161.431 69.5505L163.728 67.2533L161.431 64.9636L159.134 67.2533ZM159.134 83.3711L161.431 85.6683L163.728 83.3711L161.431 81.0739L159.134 83.3711ZM150.959 43.0878L153.376 45.5044L155.792 43.0878L153.376 40.6712L150.959 43.0878ZM159.134 91.4263L161.431 93.7235L163.728 91.4263L161.431 89.1291L159.134 91.4263ZM159.134 59.1981L161.431 61.4954L163.728 59.1981L161.431 56.9009L159.134 59.1981ZM159.134 43.0878L161.431 45.3776L163.728 43.0878L161.431 40.7906L159.134 43.0878ZM159.134 51.143L161.431 53.4402L163.728 51.143L161.431 48.8458L159.134 51.143ZM159.134 35.0252L161.431 37.3224L163.728 35.0252L161.431 32.728L159.134 35.0252ZM150.959 26.97L153.376 29.3865L155.792 26.97L153.376 24.5534L150.959 26.97ZM203.407 75.3159L201.722 73.6229L200.029 75.3159L201.722 77.009L203.407 75.3159ZM150.959 35.0252L153.376 37.4417L155.792 35.0252L153.376 32.6086L150.959 35.0252ZM183.672 99.4889L185.604 101.421L187.536 99.4889L185.604 97.5497L183.672 99.4889ZM183.672 67.2533L185.604 69.1925L187.536 67.2533L185.604 65.3216L183.672 67.2533ZM200.029 83.3711L201.722 85.0642L203.407 83.3711L201.722 81.678L200.029 83.3711ZM183.672 75.3159L185.604 77.2477L187.536 75.3159L185.604 73.3767L183.672 75.3159ZM175.49 99.4889L177.549 101.54L179.6 99.4889L177.549 97.4304L175.49 99.4889ZM175.49 91.4263L177.549 93.4848L179.6 91.4263L177.549 89.3752L175.49 91.4263ZM175.49 107.544L177.549 109.595L179.6 107.544L177.549 105.486L175.49 107.544ZM183.672 83.3711L185.604 85.3029L187.536 83.3711L185.604 81.4394L183.672 83.3711ZM183.672 59.1981L185.604 61.1299L187.536 59.1981L185.604 57.2664L183.672 59.1981ZM191.847 83.3711L193.659 85.1835L195.472 83.3711L193.659 81.5587L191.847 83.3711ZM191.847 91.4263L193.659 93.2387L195.472 91.4263L193.659 89.6139L191.847 91.4263ZM191.847 75.3159L193.659 77.1284L195.472 75.3159L193.659 73.5035L191.847 75.3159ZM175.49 83.3711L177.549 85.4222L179.6 83.3711L177.549 81.32L175.49 83.3711ZM191.847 67.2533L193.659 69.0732L195.472 67.2533L193.659 65.4409L191.847 67.2533ZM183.672 91.4263L185.604 93.3655L187.536 91.4263L185.604 89.4945L183.672 91.4263Z" fill="#FF852E"/>
</g>
<mask id="mask1_204_35" style="mask-type:luminance" maskUnits="userSpaceOnUse" x="0" y="0" width="102" height="160">
<path d="M0 0.046875H101.741V159.062H0V0.046875Z" fill="white"/>
</mask>
<g mask="url(#mask1_204_35)">
<path d="M19.1087 8.00517L22.01 10.8991L19.1087 13.8004L16.2073 10.8991L19.1087 8.00517ZM16.2073 27.0169L19.1087 29.9182L22.01 27.0169L19.1087 24.1155L16.2073 27.0169ZM16.2073 18.9617L19.1087 21.8631L22.01 18.9617L19.1087 16.0603L16.2073 18.9617ZM24.7846 50.7871C25.7094 51.7194 26.6343 52.6443 27.5666 53.5691L29.9459 51.1898L27.1638 48.4078L24.7846 50.7871ZM24.3818 43.1347L27.1638 45.9092L29.9459 43.1347L27.1638 40.3527L24.3818 43.1347ZM16.2073 35.072L19.1087 37.9734L22.01 35.072L19.1087 32.1707L16.2073 35.072ZM8.02534 27.0169L11.046 30.0376L14.0742 27.0169L11.046 23.9962L8.02534 27.0169ZM16.6623 42.6722C17.6319 43.6419 18.6015 44.604 19.5636 45.5736L22.01 43.1347L19.1087 40.2333L16.6623 42.6722ZM32.8994 58.9019C33.787 59.7895 34.6745 60.6771 35.5621 61.5646L37.8817 59.245L35.219 56.5898L32.8994 58.9019ZM24.3818 10.8991L27.1638 13.6811L29.9459 10.8991L27.1638 8.12451L24.3818 10.8991ZM8.02534 18.9617L11.046 21.9824L14.0742 18.9617L11.046 15.941L8.02534 18.9617ZM32.5638 51.1898L35.219 53.8451L37.8817 51.1898L35.219 48.5272L32.5638 51.1898ZM32.5638 43.1347L35.219 45.7899L37.8817 43.1347L35.219 40.472L32.5638 43.1347ZM24.3818 27.0169L27.1638 29.7989L29.9459 27.0169L27.1638 24.2349L24.3818 27.0169ZM24.3818 2.8439L27.1638 5.62591L29.9459 2.8439L27.1638 0.0693359L24.3818 2.8439ZM24.3818 35.072L27.1638 37.8541L29.9459 35.072L27.1638 32.2975L24.3818 35.072ZM24.3818 18.9617L27.1638 21.7363L29.9459 18.9617L27.1638 16.1797L24.3818 18.9617ZM16.2073 147.874L19.1087 150.776L22.01 147.874L19.1087 144.973L16.2073 147.874ZM48.9203 107.591L51.3368 110.008L53.7534 107.591L51.3368 105.174L48.9203 107.591ZM48.9203 91.4732L51.3368 93.8897L53.7534 91.4732L51.3368 89.0566L48.9203 91.4732ZM8.54743 34.5574C9.55433 35.5643 10.5612 36.5712 11.5681 37.5781L14.0742 35.072L11.046 32.0514L8.54743 34.5574ZM48.9203 115.646L51.3368 118.063L53.7534 115.646L51.3368 113.23L48.9203 115.646ZM49.1515 75.1316C49.957 75.9371 50.7625 76.7426 51.568 77.5482L53.7534 75.3628L51.3368 72.9463L49.1515 75.1316ZM48.9203 83.418L51.3368 85.8345L53.7534 83.418L51.3368 81.0014L48.9203 83.418ZM48.9203 59.245L51.3368 61.6616L53.7534 59.245L51.3368 56.8285L48.9203 59.245ZM48.9203 67.3002L51.3368 69.7242L53.7534 67.3002L51.3368 64.8836L48.9203 67.3002ZM48.9203 131.764L51.3368 134.181L53.7534 131.764L51.3368 129.347L48.9203 131.764ZM48.9203 99.5358L51.3368 101.952L53.7534 99.5358L51.3368 97.1118L48.9203 99.5358ZM48.9203 123.701L51.3368 126.118L53.7534 123.701L51.3368 121.285L48.9203 123.701ZM16.2073 139.819L19.1087 142.72L22.01 139.819L19.1087 136.918L16.2073 139.819ZM8.02534 131.764L11.046 134.785L14.0742 131.764L11.046 128.743L8.02534 131.764ZM0.425134 26.4426C1.47678 27.4868 2.52097 28.5384 3.57262 29.5826L6.13088 27.0169L2.99086 23.8768L0.425134 26.4426ZM8.02534 139.819L11.046 142.84L14.0742 139.819L11.046 136.798L8.02534 139.819ZM16.2073 123.701L19.1087 126.603L22.01 123.701L19.1087 120.8L16.2073 123.701ZM16.2073 131.764L19.1087 134.665L22.01 131.764L19.1087 128.863L16.2073 131.764ZM32.5638 35.072L35.219 37.7347L37.8817 35.072L35.219 32.4168L32.5638 35.072ZM16.2371 115.676L19.1087 118.547L22.01 115.646L19.1385 112.775C18.1689 113.744 17.2067 114.714 16.2371 115.676ZM32.5638 131.764L35.219 134.419L37.8817 131.764L35.219 129.101L32.5638 131.764ZM32.5638 27.0169L35.219 29.6796L37.8817 27.0169L35.219 24.3616L32.5638 27.0169ZM32.5638 147.874L35.219 150.537L37.8817 147.874L35.219 145.219L32.5638 147.874ZM32.5638 115.646L35.219 118.309L37.8817 115.646L35.219 112.991L32.5638 115.646ZM32.5638 139.819L35.219 142.474L37.8817 139.819L35.219 137.156L32.5638 139.819ZM24.3818 147.874L27.1638 150.656L29.9459 147.874L27.1638 145.1L24.3818 147.874ZM32.5638 99.5358L35.219 102.191L37.8817 99.5358L35.219 96.8731L32.5638 99.5358ZM32.5638 107.591L35.219 110.246L37.8817 107.591L35.219 104.928L32.5638 107.591ZM40.7383 131.764L43.2816 134.3L45.8175 131.764L43.2816 129.221L40.7383 131.764ZM40.7383 91.4732L43.2816 94.0165L45.8175 91.4732L43.2816 88.9373L40.7383 91.4732ZM24.3818 155.937L27.1638 158.711L29.9459 155.937L27.1638 153.155L24.3818 155.937ZM40.7383 123.701L43.2816 126.245L45.8175 123.701L43.2816 121.165L40.7383 123.701ZM40.7383 139.819L43.2816 142.355L45.8175 139.819L43.2816 137.283L40.7383 139.819ZM40.7383 115.646L43.2816 118.182L45.8175 115.646L43.2816 113.11L40.7383 115.646ZM40.7383 99.5358L43.2816 102.072L45.8175 99.5358L43.2816 96.9925L40.7383 99.5358ZM40.7383 107.591L43.2816 110.127L45.8175 107.591L43.2816 105.055L40.7383 107.591ZM32.5638 123.701L35.219 126.364L37.8817 123.701L35.219 121.046L32.5638 123.701ZM40.7383 59.245L43.2816 61.7809L45.8175 59.245L43.2816 56.7091L40.7383 59.245ZM40.7383 51.1898L43.2816 53.7257L45.8175 51.1898L43.2816 48.654L40.7383 51.1898ZM40.7383 43.1347L43.2816 45.6706L45.8175 43.1347L43.2816 40.5913L40.7383 43.1347ZM24.3818 139.819L27.1638 142.601L29.9459 139.819L27.1638 137.037L24.3818 139.819ZM41.0217 67.0168C41.872 67.867 42.7148 68.7098 43.5651 69.5527L45.8175 67.3002L43.2816 64.7643L41.0217 67.0168ZM32.5638 10.8991L35.219 13.5617L37.8817 10.8991L35.219 8.24384L32.5638 10.8991ZM40.7383 18.9617L43.2816 21.4976L45.8175 18.9617L43.2816 16.4184L40.7383 18.9617ZM32.5638 18.9617L35.219 21.6169L37.8817 18.9617L35.219 16.299L32.5638 18.9617ZM40.7383 35.072L43.2816 37.6154L45.8175 35.072L43.2816 32.5362L40.7383 35.072ZM40.7383 27.0169L43.2816 29.5528L45.8175 27.0169L43.2816 24.481L40.7383 27.0169ZM24.3818 115.646L27.1638 118.428L29.9459 115.646L27.1638 112.864L24.3818 115.646ZM24.3818 107.591L27.1638 110.373L29.9459 107.591L27.1638 104.809L24.3818 107.591ZM24.3818 131.764L27.1638 134.539L29.9459 131.764L27.1638 128.982L24.3818 131.764ZM24.3818 123.701L27.1638 126.483L29.9459 123.701L27.1638 120.927L24.3818 123.701ZM0 131.913L2.99086 134.904L6.13088 131.764L3.14003 128.773C2.09584 129.817 1.04419 130.861 0 131.913ZM48.9203 51.1898L51.3368 53.6064L53.7534 51.1898L51.3368 48.7733L48.9203 51.1898ZM8.11484 123.798L11.046 126.729L14.0742 123.701L11.143 120.77C10.1361 121.777 9.1292 122.784 8.11484 123.798ZM73.4512 67.3002L75.5098 69.3587L77.5609 67.3002L75.5098 65.2491L73.4512 67.3002ZM65.2767 59.245L67.4472 61.4229L69.625 59.245L67.4472 57.0671L65.2767 59.245ZM65.2767 43.1347L67.4472 45.3051L69.625 43.1347L67.4472 40.9568L65.2767 43.1347ZM65.2767 75.3628L67.4472 77.5332L69.625 75.3628L67.4472 73.1849L65.2767 75.3628ZM65.2767 67.3002L67.4472 69.4781L69.625 67.3002L67.4472 65.1298L65.2767 67.3002ZM57.0948 107.591L59.392 109.888L61.6892 107.591L59.392 105.294L57.0948 107.591ZM57.0948 123.701L59.392 125.999L61.6892 123.701L59.392 121.412L57.0948 123.701ZM57.0948 115.646L59.392 117.943L61.6892 115.646L59.392 113.349L57.0948 115.646ZM65.2767 51.1898L67.4472 53.3677L69.625 51.1898L67.4472 49.012L65.2767 51.1898ZM65.2767 83.418L67.4472 85.5959L69.625 83.418L67.4472 81.2401L65.2767 83.418ZM65.2767 107.591L67.4472 109.769L69.625 107.591L67.4472 105.413L65.2767 107.591ZM73.4512 51.1898L75.5098 53.2409L77.5609 51.1898L75.5098 49.1313L73.4512 51.1898ZM73.4512 59.245L75.5098 61.3036L77.5609 59.245L75.5098 57.1939L73.4512 59.245ZM73.4512 75.3628L75.5098 77.4139L77.5609 75.3628L75.5098 73.3043L73.4512 75.3628ZM65.2767 115.646L67.4472 117.824L69.625 115.646L67.4472 113.468L65.2767 115.646ZM65.2767 91.4732L67.4472 93.651L69.625 91.4732L67.4472 89.3027L65.2767 91.4732ZM65.2767 99.5358L67.4472 101.706L69.625 99.5358L67.4472 97.3579L65.2767 99.5358ZM57.0948 99.5358L59.392 101.826L61.6892 99.5358L59.392 97.2386L57.0948 99.5358ZM57.0948 75.3628L59.392 77.66L61.6892 75.3628L59.392 73.0656L57.0948 75.3628ZM57.0948 67.3002L59.392 69.5974L61.6892 67.3002L59.392 65.0104L57.0948 67.3002ZM57.0948 83.418L59.392 85.7152L61.6892 83.418L59.392 81.1208L57.0948 83.418ZM48.9203 43.1347L51.3368 45.5512L53.7534 43.1347L51.3368 40.7181L48.9203 43.1347ZM57.0948 91.4732L59.392 93.7704L61.6892 91.4732L59.392 89.176L57.0948 91.4732ZM57.0948 59.245L59.392 61.5422L61.6892 59.245L59.392 56.9478L57.0948 59.245ZM57.0948 43.1347L59.392 45.4244L61.6892 43.1347L59.392 40.8375L57.0948 43.1347ZM57.0948 51.1898L59.392 53.4871L61.6892 51.1898L59.392 48.8926L57.0948 51.1898ZM57.0948 35.072L59.392 37.3693L61.6892 35.072L59.392 32.7748L57.0948 35.072ZM48.9203 27.0169L51.3368 29.4334L53.7534 27.0169L51.3368 24.6003L48.9203 27.0169ZM101.368 75.3628L99.6828 73.6697L97.9897 75.3628L99.6828 77.0559L101.368 75.3628ZM48.9203 35.072L51.3368 37.4886L53.7534 35.072L51.3368 32.6555L48.9203 35.072ZM81.6332 99.5358L83.565 101.468L85.4967 99.5358L83.565 97.5966L81.6332 99.5358ZM81.6332 67.3002L83.565 69.2394L85.4967 67.3002L83.565 65.3684L81.6332 67.3002ZM97.9897 83.418L99.6828 85.1111L101.368 83.418L99.6828 81.7249L97.9897 83.418ZM81.6332 75.3628L83.565 77.2946L85.4967 75.3628L83.565 73.4236L81.6332 75.3628ZM73.4512 99.5358L75.5098 101.587L77.5609 99.5358L75.5098 97.4773L73.4512 99.5358ZM73.4512 91.4732L75.5098 93.5317L77.5609 91.4732L75.5098 89.4221L73.4512 91.4732ZM73.4512 107.591L75.5098 109.642L77.5609 107.591L75.5098 105.532L73.4512 107.591ZM81.6332 83.418L83.565 85.3497L85.4967 83.418L83.565 81.4862L81.6332 83.418ZM81.6332 59.245L83.565 61.1768L85.4967 59.245L83.565 57.3133L81.6332 59.245ZM89.8077 83.418L91.6201 85.2304L93.4325 83.418L91.6201 81.6056L89.8077 83.418ZM89.8077 91.4732L91.6201 93.2856L93.4325 91.4732L91.6201 89.6608L89.8077 91.4732ZM89.8077 75.3628L91.6201 77.1752L93.4325 75.3628L91.6201 73.5504L89.8077 75.3628ZM73.4512 83.418L75.5098 85.4691L77.5609 83.418L75.5098 81.3669L73.4512 83.418ZM89.8077 67.3002L91.6201 69.1201L93.4325 67.3002L91.6201 65.4878L89.8077 67.3002ZM81.6332 91.4732L83.565 93.4124L85.4967 91.4732L83.565 89.5414L81.6332 91.4732Z" fill="#FF852E"/>
</g>
</svg>
