<svg width="626" height="244" viewBox="0 0 626 244" fill="none" xmlns="http://www.w3.org/2000/svg">
<path d="M0.30957 240.918V25.1885H29.696V240.918H0.30957Z" fill="#E28C4F"/>
<path d="M54.5225 240.918V79.1281H83.9089V95.0296H89.0404C92.2624 89.1075 95.7605 84.6101 99.5419 81.5446C103.316 78.4866 108.895 76.9502 116.279 76.9502C123.633 76.9502 129.652 78.5314 134.328 81.6938C138.997 84.8413 142.331 89.9131 144.323 96.9091H149.454C152.676 90.9871 156.48 86.1838 160.881 82.4993C165.296 78.7999 171.188 76.9502 178.572 76.9502C188.455 76.9502 195.95 79.9261 201.067 85.8706C206.198 91.8001 208.854 101.683 209.033 115.526L209.301 240.918H180.183L179.915 113.377C179.557 103.473 175.149 98.5202 166.698 98.5202C162.559 98.5202 158.688 99.8329 155.093 102.458C151.513 105.069 148.723 108.619 146.739 113.109L147.008 240.918H117.89L117.621 113.377C117.621 103.473 113.213 98.5202 104.405 98.5202C100.086 98.5202 95.9917 99.6986 92.1133 102.041C88.2498 104.368 85.52 107.873 83.9089 112.542V240.918H54.5225Z" fill="white"/>
<path d="M293.975 181.846H322.317C322.496 184.375 322.623 187.709 322.705 191.841C322.802 195.98 322.765 199.672 322.586 202.909C322.026 217.289 318.469 227.582 311.905 233.787C305.357 239.978 294.616 243.066 279.684 243.066C264.409 243.066 253.311 239.978 246.39 233.787C239.468 227.582 235.65 217.289 234.933 202.909C234.754 197.681 234.613 191.334 234.516 183.875C234.434 176.417 234.396 168.652 234.396 160.575C234.396 152.482 234.434 144.658 234.516 137.095C234.613 129.54 234.754 123.066 234.933 117.674C235.829 103.115 239.737 92.6951 246.658 86.4076C253.58 80.1051 264.499 76.9502 279.416 76.9502C294.169 76.9502 304.909 80.0156 311.637 86.1391C318.379 92.2476 322.026 102.399 322.586 116.6C322.765 118.949 322.892 122.73 322.974 127.936C323.071 133.15 323.071 139.035 322.974 145.598C322.892 152.162 322.675 158.68 322.317 165.139H263.783C263.783 171.785 263.82 178.438 263.902 185.098C263.999 191.744 264.141 198.665 264.32 205.863C264.32 211.434 265.528 215.343 267.96 217.588C270.384 219.84 274.292 220.959 279.684 220.959C284.532 220.959 288.083 219.84 290.335 217.588C292.58 215.343 293.796 211.434 293.975 205.863C294.333 200.12 294.333 192.109 293.975 181.846ZM279.416 99.0572C274.023 99.0572 270.153 100.183 267.811 102.428C265.483 104.681 264.32 108.328 264.32 113.377C264.141 119.128 263.999 124.476 263.902 129.428C263.82 134.366 263.783 139.348 263.783 144.375H294.243C294.422 137.178 294.46 130.793 294.363 125.222C294.281 119.658 294.154 115.705 293.975 113.377C293.796 108.328 292.58 104.681 290.335 102.428C288.083 100.183 284.443 99.0572 279.416 99.0572Z" fill="white"/>
<path d="M404.812 181.846H433.154C433.333 184.375 433.46 187.709 433.542 191.841C433.639 195.98 433.602 199.672 433.423 202.909C432.863 217.289 429.306 227.582 422.742 233.787C416.194 239.978 405.453 243.066 390.521 243.066C375.246 243.066 364.148 239.978 357.227 233.787C350.305 227.582 346.486 217.289 345.77 202.909C345.591 197.681 345.45 191.334 345.353 183.875C345.271 176.417 345.233 168.652 345.233 160.575C345.233 152.482 345.271 144.658 345.353 137.095C345.45 129.54 345.591 123.066 345.77 117.674C346.665 103.115 350.574 92.6951 357.495 86.4076C364.417 80.1051 375.336 76.9502 390.253 76.9502C405.006 76.9502 415.746 80.0156 422.474 86.1391C429.216 92.2476 432.863 102.399 433.423 116.6C433.602 118.949 433.728 122.73 433.81 127.936C433.907 133.15 433.907 139.035 433.81 145.598C433.728 152.162 433.512 158.68 433.154 165.139H374.62C374.62 171.785 374.657 178.438 374.739 185.098C374.836 191.744 374.978 198.665 375.157 205.863C375.157 211.434 376.365 215.343 378.797 217.588C381.221 219.84 385.129 220.959 390.521 220.959C395.369 220.959 398.92 219.84 401.172 217.588C403.417 215.343 404.633 211.434 404.812 205.863C405.17 200.12 405.17 192.109 404.812 181.846ZM390.253 99.0572C384.86 99.0572 380.989 100.183 378.647 102.428C376.32 104.681 375.157 108.328 375.157 113.377C374.978 119.128 374.836 124.476 374.739 129.428C374.657 134.366 374.62 139.348 374.62 144.375H405.08C405.259 137.178 405.297 130.793 405.2 125.222C405.118 119.658 404.991 115.705 404.812 113.377C404.633 108.328 403.417 104.681 401.172 102.428C398.92 100.183 395.28 99.0572 390.253 99.0572Z" fill="white"/>
<path d="M481.138 240.918V51.0844H449.872V25.1885H541.283V51.0844H510.286V240.918H481.138Z" fill="#E28C4F"/>
<path d="M555.454 44.2295V72.6389L567.067 74.8615V59.7804L589.294 73.8919C598.661 79.8811 603.972 81.2534 608.999 81.2534C618.486 81.2534 624.363 74.951 624.08 65.9635C623.983 61.9956 622.641 59.1166 620.985 56.4987L609.282 54.2835C611.222 57.4683 612.683 60.2727 612.683 63.6514C612.683 67.142 610.558 69.3572 606.784 69.3572C603.196 69.3572 598.572 66.9257 592.389 63.0846L565.412 46.1612L555.454 44.2295ZM624.08 120.09C624.08 116.241 622.827 112.751 619.739 109.655C610.461 100.384 584.058 96.3271 572.751 96.3271C559.892 96.3271 554.492 101.727 554.492 109.752C554.492 113.623 555.738 117.091 558.833 120.202C568.126 129.48 594.515 133.537 605.814 133.537C618.673 133.537 624.08 128.108 624.08 120.09ZM565.322 110.528C565.322 109.185 565.978 107.53 570.632 107.53C579.523 107.53 607.656 112.557 612.184 117.092C613.056 117.964 613.25 118.74 613.25 119.329C613.25 120.679 612.586 122.327 607.94 122.327C599.042 122.327 570.916 117.3 566.381 112.751C565.508 111.878 565.322 111.117 565.322 110.528ZM555.454 144.651V173.06L567.067 175.283V160.202L589.294 174.313C598.661 180.302 603.972 181.675 608.999 181.675C618.486 181.675 624.363 175.372 624.08 166.385C623.983 162.417 622.641 159.538 620.985 156.92L609.282 154.705C611.222 157.889 612.683 160.694 612.683 164.073C612.683 167.563 610.558 169.778 606.784 169.778C603.196 169.778 598.572 167.347 592.389 163.506L565.412 146.582L555.454 144.651ZM554.492 205.05C554.492 209.987 556.327 213.851 559.706 217.229C565.695 223.226 575.66 225.747 583.394 225.747C593.142 225.747 598.475 221.1 598.475 212.978C598.475 211.919 598.378 211.233 598.169 210.27L611.9 213.851V229.029L623.11 231.244V207.272L591.017 198.963L586.959 204.274C587.459 205.549 587.929 207.175 587.929 209.107C587.929 211.538 586.862 214.134 581.932 214.134C575.063 214.134 565.792 211.538 565.792 204.766C565.792 201.492 567.448 198.374 569.76 195.495L558.266 193.25C555.835 196.651 554.492 200.895 554.492 205.05Z" stroke="#FFBD59" stroke-width="2.53119"/>
<path d="M127.278 21.5109C127.502 21.4885 127.673 21.5407 127.785 21.675C127.897 21.8092 127.949 21.9658 127.949 22.1448C127.949 22.3238 127.897 22.4879 127.785 22.6296C127.673 22.7788 127.502 22.8609 127.278 22.8832C123.676 23.1667 120.118 23.6962 116.605 24.457C116.15 25.5981 115.687 26.7393 115.225 27.8804C114.763 29.029 114.3 30.1702 113.845 31.3039C115.919 30.7519 118.037 30.3343 120.192 30.0583C120.416 30.0285 120.58 30.0732 120.692 30.2075C120.797 30.3343 120.849 30.4834 120.849 30.6699C120.849 30.8489 120.797 31.013 120.685 31.1696C120.573 31.3262 120.409 31.4157 120.192 31.4456C119.006 31.5873 117.828 31.7812 116.665 32.0273C115.508 32.266 114.36 32.5569 113.219 32.8851C112.316 35.1972 111.414 37.5168 110.526 39.8438C109.631 42.1709 108.744 44.5054 107.871 46.8325C107.796 47.0338 107.677 47.1681 107.498 47.2427C107.326 47.3098 107.147 47.3173 106.976 47.2725C106.797 47.2278 106.663 47.1308 106.566 46.9816C106.469 46.8399 106.461 46.6684 106.536 46.467C107.356 44.2742 108.184 42.0963 109.027 39.9259C109.862 37.7555 110.713 35.585 111.563 33.4146C109.355 34.1456 107.207 35.048 105.111 36.1221C104.515 37.7182 103.918 39.3217 103.321 40.9179C102.717 42.5214 102.12 44.1176 101.524 45.7137C101.449 45.9151 101.322 46.0568 101.151 46.1239C100.972 46.191 100.8 46.2059 100.621 46.1537C100.442 46.109 100.316 46.012 100.226 45.8703C100.129 45.7211 100.122 45.5496 100.196 45.3482C100.718 43.9758 101.233 42.6035 101.748 41.2311C102.255 39.8588 102.769 38.4864 103.277 37.114C101.554 38.106 99.8978 39.2024 98.3017 40.4181C98.1153 40.5449 97.9512 40.5822 97.7871 40.53C97.6304 40.4778 97.5037 40.3734 97.4216 40.2168C97.3396 40.0676 97.3023 39.8961 97.3172 39.7096C97.3321 39.5231 97.4291 39.3665 97.6006 39.2397C98.615 38.464 99.6666 37.7256 100.733 37.0395C101.8 36.3533 102.896 35.7193 104.015 35.1375C104.515 33.8025 105.007 32.4823 105.492 31.1547C105.976 29.8271 106.461 28.5069 106.946 27.1868C105.395 27.7313 103.858 28.3205 102.344 28.9694C100.83 29.6108 99.3235 30.297 97.8393 31.0354C97.6454 31.1323 97.4664 31.1398 97.2948 31.0727C97.1233 31.0055 96.9965 30.8937 96.8995 30.7296C96.81 30.5729 96.7802 30.4089 96.81 30.2373C96.8324 30.0658 96.9517 29.9315 97.1531 29.8345C98.8387 28.9992 100.554 28.2161 102.292 27.5C104.022 26.784 105.775 26.1277 107.543 25.5459C108.274 23.547 109.005 21.5482 109.728 19.5567C110.452 17.5728 111.168 15.5814 111.884 13.59C111.958 13.3811 112.078 13.2394 112.249 13.1797C112.421 13.1126 112.585 13.1051 112.756 13.1424C112.928 13.1872 113.062 13.2767 113.166 13.4184C113.263 13.5527 113.278 13.7317 113.204 13.9405C112.547 15.7977 111.884 17.6399 111.212 19.4822C110.541 21.3244 109.87 23.1592 109.199 25.0014C110.25 24.6733 111.317 24.36 112.383 24.0691C113.45 23.7783 114.524 23.5097 115.598 23.2785C116.769 20.4145 117.947 17.5579 119.141 14.7087C119.223 14.5073 119.357 14.3731 119.543 14.3134C119.722 14.2463 119.894 14.2388 120.066 14.2836C120.237 14.3358 120.364 14.4253 120.461 14.567C120.55 14.7013 120.55 14.8728 120.468 15.0742C119.924 16.3869 119.379 17.6921 118.827 19.0048C118.283 20.3101 117.739 21.6153 117.209 22.928C118.872 22.5849 120.535 22.3015 122.214 22.0628C123.892 21.8316 125.577 21.6451 127.278 21.5109ZM112.182 31.7812C112.652 30.6177 113.114 29.4542 113.577 28.2981C114.039 27.142 114.509 25.986 114.979 24.8299C113.912 25.0835 112.846 25.3595 111.787 25.6578C110.72 25.9561 109.661 26.2768 108.609 26.6125C108.154 27.8879 107.684 29.1633 107.215 30.4387C106.737 31.7066 106.267 32.9746 105.797 34.2425C106.842 33.7503 107.893 33.3027 108.952 32.8925C110.012 32.4823 111.086 32.1168 112.182 31.7812ZM141.613 56.6031C141.158 56.2898 140.815 55.8721 140.591 55.3426C140.368 54.8056 140.233 54.2164 140.174 53.56C140.114 52.9037 140.107 52.2324 140.159 51.5462C140.204 50.86 140.278 50.2111 140.39 49.5995C140.494 48.988 140.591 48.4733 140.688 48.0482C140.912 47.101 141.195 46.1015 141.531 45.0424C141.867 43.9908 142.255 42.9242 142.71 41.8427C143.165 40.7687 143.672 39.7096 144.246 38.6803C144.82 37.6436 145.462 36.674 146.163 35.7566C146.193 34.6304 146.178 33.5041 146.118 32.3854C146.051 31.2591 145.917 30.1478 145.715 29.0365C145.529 27.9252 145.253 26.8437 144.902 25.7995C144.828 25.5757 144.746 25.3595 144.656 25.1432C144.567 24.9343 144.44 24.7926 144.283 24.7255C144.119 24.6509 143.895 24.7329 143.612 24.9567C143.47 25.0611 143.366 25.2327 143.291 25.4713C143.217 25.71 143.172 25.971 143.15 26.2545C143.127 26.5379 143.127 26.8064 143.157 27.0525C143.179 27.3061 143.224 27.4926 143.291 27.6194C143.388 27.8208 143.403 28.0072 143.329 28.1788C143.262 28.3503 143.15 28.4846 142.986 28.5741C142.829 28.671 142.665 28.7009 142.493 28.671C142.322 28.6412 142.187 28.5219 142.098 28.3205C141.949 28.0147 141.844 27.6492 141.792 27.2166C141.74 26.7915 141.733 26.3589 141.785 25.9039C141.829 25.449 141.934 25.0164 142.105 24.6061C142.27 24.1885 142.493 23.8379 142.769 23.5396C143.053 23.2487 143.403 23.0622 143.821 22.9727C144.224 22.8907 144.582 22.9354 144.887 23.1219C145.193 23.3009 145.462 23.5694 145.693 23.92C145.924 24.2705 146.111 24.6658 146.267 25.1133C146.424 25.5608 146.551 26.0158 146.655 26.4708C146.767 26.9257 146.849 27.3509 146.916 27.7387C146.976 28.1266 147.028 28.4398 147.073 28.671C147.229 29.5437 147.356 30.4312 147.446 31.3412C147.543 32.2436 147.602 33.1536 147.632 34.0635C148.289 33.3848 149.005 32.7807 149.765 32.2586C150.526 31.729 151.324 31.3113 152.167 31.0055C152.376 30.916 152.555 30.9235 152.696 31.0279C152.846 31.1249 152.935 31.2666 152.987 31.4381C153.032 31.6171 153.025 31.7887 152.958 31.9677C152.883 32.1467 152.741 32.266 152.532 32.3406C151.585 32.6911 150.705 33.2132 149.9 33.892C149.087 34.5707 148.341 35.3464 147.647 36.2041C147.625 38.0463 147.505 39.8961 147.282 41.7607C147.058 43.6178 146.76 45.4601 146.394 47.2725C146.029 49.0849 145.618 50.8526 145.156 52.5606C145.104 52.7769 145.037 53.0603 144.94 53.4108C144.85 53.7614 144.738 54.1269 144.597 54.5147C144.462 54.9025 144.298 55.2755 144.112 55.626C143.925 55.9766 143.716 56.2749 143.478 56.5136C143.239 56.7522 142.963 56.8865 142.65 56.9163C142.344 56.9536 142.001 56.8417 141.613 56.6031ZM141.74 49.9128C141.725 50.0545 141.695 50.2634 141.665 50.5542C141.628 50.8377 141.606 51.1658 141.583 51.5238C141.561 51.8893 141.554 52.2473 141.554 52.6128C141.554 52.9708 141.576 53.299 141.613 53.5824C141.658 53.8733 141.733 54.0746 141.837 54.2089C142.061 54.4699 142.262 54.6042 142.441 54.6042C142.613 54.6042 142.769 54.5222 142.918 54.3506C143.06 54.1791 143.187 53.9702 143.299 53.7166C143.411 53.4705 143.508 53.2318 143.597 53.0081C143.679 52.762 143.754 52.4934 143.828 52.1876C143.895 51.8818 143.963 51.6133 144.022 51.3672C144.544 49.2788 144.977 47.1681 145.313 45.02C145.648 42.8794 145.887 40.7314 146.036 38.5834C145.507 39.4635 145.029 40.3585 144.597 41.2684C144.171 42.1784 143.799 43.0435 143.47 43.864C143.082 44.8336 142.739 45.8256 142.441 46.8325C142.135 47.8468 141.904 48.8686 141.74 49.9128ZM143 19.8029C143.187 19.7134 143.366 19.691 143.537 19.7208C143.716 19.7507 143.858 19.8551 143.963 20.0415C144.045 20.1907 144.067 20.3697 144.037 20.5711C144 20.7799 143.888 20.9216 143.709 20.9962C143.612 21.041 143.515 21.0783 143.418 21.123C143.321 21.1678 143.224 21.2125 143.135 21.2498C142.963 21.3244 142.784 21.3468 142.605 21.3169C142.426 21.2871 142.277 21.1827 142.173 21.0112C142.091 20.862 142.068 20.683 142.113 20.4741C142.15 20.2728 142.262 20.131 142.426 20.0565C142.523 20.0043 142.62 19.9595 142.717 19.9222C142.814 19.8849 142.911 19.8402 143 19.8029ZM176.959 31.1323C177.011 30.9086 177.123 30.7594 177.28 30.6923C177.436 30.6251 177.608 30.6102 177.787 30.6624C177.973 30.7072 178.115 30.8042 178.227 30.9459C178.339 31.0876 178.369 31.274 178.316 31.4978C178.219 31.9155 178.055 32.4003 177.832 32.9671C177.6 33.5265 177.324 34.1083 176.989 34.6975C176.661 35.2867 176.295 35.8386 175.885 36.3384C175.475 36.8455 175.027 37.2557 174.55 37.569C174.073 37.8823 173.58 38.0389 173.066 38.0389C172.514 38.0389 172.066 37.8673 171.723 37.5317C171.387 37.1886 171.126 36.7411 170.94 36.1817C170.761 35.6223 170.634 35.0107 170.552 34.3395C170.47 33.6682 170.41 33.0044 170.366 32.3555C170.149 33.0641 169.911 33.7577 169.665 34.4514C169.426 35.1375 169.142 35.8163 168.837 36.4726C168.702 36.7859 168.531 37.114 168.329 37.4646C168.121 37.8151 167.897 38.1582 167.643 38.4864C167.382 38.8146 167.099 39.098 166.786 39.3292C166.472 39.5679 166.129 39.7245 165.756 39.7991C165.204 39.9035 164.749 39.8438 164.399 39.6201C164.048 39.3963 163.78 39.0607 163.593 38.6132C163.407 38.1657 163.28 37.666 163.22 37.0991C163.153 36.5323 163.131 35.9654 163.153 35.3911C163.176 34.8168 163.213 34.2873 163.265 33.795C163.317 33.3027 163.37 32.9149 163.414 32.6315C163.504 32.0124 163.638 31.3039 163.81 30.4984C163.981 29.6928 164.197 28.8649 164.459 28.0072C164.72 27.1569 165.033 26.3291 165.413 25.5459C165.794 24.7553 166.234 24.0691 166.741 23.4725C167.241 22.8758 167.83 22.4432 168.501 22.1747C169.239 21.8913 169.926 21.8167 170.567 21.9509C171.216 22.0926 171.768 22.3835 172.23 22.831C172.693 23.2785 173.028 23.823 173.252 24.4644C173.468 25.1133 173.521 25.7846 173.416 26.4857C173.386 26.7094 173.289 26.8586 173.14 26.9332C172.984 27.0078 172.819 27.0152 172.64 26.963C172.469 26.9108 172.32 26.8139 172.193 26.6721C172.074 26.523 172.029 26.344 172.059 26.1202C172.156 25.4937 172.111 24.9791 171.917 24.5763C171.723 24.181 171.447 23.8901 171.089 23.7111C170.724 23.5321 170.328 23.4575 169.888 23.4874C169.456 23.5172 169.031 23.6515 168.62 23.8752C168.21 24.1064 167.867 24.4346 167.591 24.8597C167.263 25.3669 166.972 25.9188 166.711 26.5006C166.457 27.0898 166.226 27.6641 166.01 28.2235C165.204 30.3716 164.72 32.5793 164.563 34.8467C164.548 35.0182 164.533 35.2569 164.511 35.5701C164.488 35.8759 164.481 36.1966 164.488 36.5323C164.496 36.8679 164.526 37.1737 164.593 37.4422C164.652 37.7107 164.764 37.8972 164.928 37.9941C165.227 38.1731 165.503 38.2254 165.756 38.1508C166.01 38.0762 166.249 37.9196 166.472 37.6883C166.696 37.4571 166.897 37.1886 167.069 36.8828C167.233 36.577 167.382 36.2861 167.509 36.0027C167.643 35.7268 167.733 35.4955 167.8 35.324C168.233 34.2723 168.628 33.1983 168.978 32.1019C169.329 31.0055 169.687 29.9166 170.052 28.8351C170.127 28.6114 170.254 28.4622 170.448 28.3876C170.642 28.313 170.828 28.313 171.015 28.3876C171.201 28.4622 171.335 28.6114 171.41 28.8351C171.492 29.0962 171.552 29.4542 171.589 29.9091C171.626 30.3641 171.656 30.8638 171.686 31.4157C171.716 31.9677 171.745 32.5271 171.783 33.0865C171.82 33.6458 171.88 34.1679 171.962 34.6676C172.051 35.1599 172.171 35.5776 172.327 35.9132C172.476 36.2414 172.685 36.4577 172.954 36.5546C173.207 36.6516 173.476 36.6143 173.759 36.4428C174.043 36.2712 174.326 36.0176 174.617 35.6671C174.9 35.324 175.176 34.9362 175.437 34.4961C175.698 34.0635 175.93 33.6235 176.146 33.1834C176.362 32.7359 176.534 32.3331 176.683 31.9677C176.825 31.6022 176.914 31.3188 176.959 31.1323ZM190.422 31.4008C190.414 31.4307 190.399 31.4605 190.377 31.4903C190.354 31.5127 190.332 31.5425 190.31 31.5575C190.287 31.9304 190.272 32.3108 190.265 32.6837C190.257 33.0641 190.243 33.437 190.235 33.8099C190.511 32.8776 190.839 31.9826 191.22 31.1398C191.607 30.2895 192.055 29.5437 192.577 28.8948C192.831 28.5741 193.122 28.2906 193.442 28.0445C193.763 27.7909 194.106 27.6268 194.479 27.5373C194.852 27.4553 195.24 27.5 195.657 27.6865C196.083 27.8655 196.418 28.1415 196.657 28.5069C196.895 28.8724 197.06 29.2826 197.157 29.7301C197.254 30.1851 197.313 30.6475 197.328 31.1174C197.343 31.5798 197.336 32.005 197.321 32.3928C197.306 32.6539 197.283 32.9224 197.254 33.1983C197.224 33.4668 197.194 33.7428 197.157 34.0188C197.328 33.9964 197.5 33.974 197.671 33.9516C197.843 33.9367 198.007 33.9069 198.163 33.877C199.163 33.6906 200.036 33.3699 200.789 32.9074C201.542 32.445 202.221 31.8185 202.84 31.0204C202.982 30.834 203.131 30.7519 203.302 30.7743C203.474 30.7892 203.623 30.8564 203.757 30.9832C203.892 31.1174 203.974 31.274 203.996 31.4605C204.026 31.647 203.966 31.826 203.832 32.005C203.287 32.6986 202.683 33.2953 202.027 33.795C201.363 34.2947 200.61 34.6751 199.76 34.9436C199.305 35.0853 198.827 35.1748 198.342 35.227C197.85 35.2718 197.373 35.3538 196.903 35.4732C196.761 36.1519 196.597 36.8232 196.396 37.487C196.187 38.1508 195.948 38.7922 195.672 39.4113C195.546 39.6872 195.367 39.9781 195.143 40.2764C194.912 40.5748 194.658 40.8134 194.375 40.9924C194.091 41.1715 193.808 41.2311 193.517 41.1715C193.233 41.1043 192.965 40.8507 192.719 40.4032C192.517 40.0378 192.428 39.635 192.45 39.18C192.473 38.7325 192.57 38.2626 192.756 37.7853C192.935 37.308 193.166 36.8455 193.457 36.4129C193.741 35.9729 194.054 35.585 194.389 35.2494C194.725 34.9063 195.053 34.6527 195.374 34.4812C195.463 34.4141 195.575 34.3693 195.687 34.3395C195.821 33.6011 195.896 32.8702 195.926 32.1318C195.941 31.9005 195.933 31.6097 195.911 31.2666C195.896 30.9235 195.844 30.5729 195.777 30.2224C195.71 29.8718 195.598 29.5735 195.449 29.3348C195.299 29.0962 195.113 28.9619 194.874 28.9395C194.643 28.9097 194.352 29.0514 194.002 29.3572C193.659 29.6555 193.368 30.0359 193.122 30.4909C192.875 30.9459 192.674 31.4232 192.51 31.9155C192.338 32.4003 192.189 32.8552 192.055 33.2878C191.742 34.2425 191.473 35.2345 191.249 36.2638C191.018 37.2856 190.869 38.3223 190.794 39.359C190.72 40.3958 190.742 41.4176 190.869 42.4319C190.891 42.6184 190.839 42.775 190.72 42.8944C190.601 43.0062 190.444 43.0808 190.265 43.1032C190.086 43.133 189.922 43.1032 189.773 43.0286C189.623 42.9466 189.534 42.8123 189.497 42.6184C189.198 40.9999 189.027 39.3814 188.975 37.7629C188.915 36.137 188.937 34.5185 189.027 32.8925C189.116 31.274 189.213 29.6481 189.325 28.0371C189.459 25.9188 189.646 23.8081 189.877 21.7048C190.101 19.609 190.399 17.5206 190.757 15.4397C190.921 14.5073 191.093 13.5303 191.279 12.5159C191.466 11.5016 191.689 10.4798 191.958 9.4654C192.219 8.45105 192.547 7.46653 192.935 6.5193C193.323 5.57207 193.8 4.69943 194.367 3.90137C194.621 3.55082 194.912 3.25994 195.24 3.02873C195.575 2.79005 195.911 2.6558 196.247 2.61105C196.59 2.5663 196.91 2.64834 197.224 2.84226C197.529 3.04364 197.791 3.38673 198.007 3.88645C198.208 4.34888 198.32 4.84114 198.35 5.37069C198.372 5.9077 198.357 6.43726 198.298 6.96681C198.238 7.50382 198.171 8.00354 198.096 8.48834C197.91 9.81595 197.641 11.1361 197.306 12.4413C196.963 13.754 196.597 15.0518 196.202 16.3496C195.411 18.9153 194.546 21.4587 193.599 23.9871C192.652 26.5155 191.593 28.9843 190.422 31.4008ZM191.458 20.1534C191.309 21.3766 191.16 22.6147 191.003 23.8678C190.854 25.1208 190.72 26.3887 190.601 27.6641C191.406 25.807 192.152 23.92 192.838 22.0031C193.524 20.0863 194.166 18.1695 194.762 16.2377C195.105 15.1562 195.426 14.0673 195.725 12.9709C196.023 11.8745 196.276 10.7706 196.485 9.65187C196.552 9.30132 196.627 8.91348 196.717 8.48834C196.813 8.06321 196.888 7.62316 196.948 7.16819C197.015 6.71322 197.037 6.27317 197.022 5.84058C197.007 5.41544 196.933 5.02014 196.791 4.66959C196.664 4.34142 196.523 4.1475 196.359 4.08037C196.202 4.01325 196.038 4.05054 195.881 4.18479C195.725 4.31904 195.568 4.50551 195.411 4.75164C195.255 4.99777 195.113 5.25881 194.979 5.5497C194.844 5.83312 194.725 6.10908 194.621 6.36267C194.516 6.61626 194.434 6.81764 194.382 6.95189C193.83 8.33917 193.368 9.76374 193.002 11.2405C192.637 12.7098 192.331 14.1941 192.092 15.6932C191.854 17.1849 191.645 18.6692 191.458 20.1534ZM194.986 37.1961C195.023 37.0767 195.053 36.9649 195.083 36.853C195.113 36.7411 195.15 36.6292 195.18 36.5248C195.031 36.7038 194.852 36.9574 194.636 37.2707C194.427 37.5914 194.24 37.9046 194.091 38.203C194.061 38.2776 194.031 38.3894 193.994 38.5535C193.957 38.7102 193.934 38.8593 193.927 39.0085C193.92 39.1502 193.942 39.2472 193.994 39.2994C194.039 39.3516 194.128 39.3143 194.255 39.1875C194.404 39.0383 194.516 38.8444 194.606 38.6057C194.688 38.3671 194.762 38.1209 194.822 37.8673C194.882 37.6063 194.934 37.3825 194.986 37.1961ZM228.244 49.8457C228.467 49.8382 228.631 49.8979 228.743 50.0321C228.855 50.1664 228.907 50.323 228.907 50.5095C228.907 50.6959 228.855 50.86 228.743 51.0017C228.631 51.136 228.467 51.2106 228.244 51.2255C226.334 51.3075 224.432 51.3896 222.523 51.4791C220.606 51.5611 218.704 51.6506 216.795 51.7327C216.578 51.7401 216.407 51.6805 216.302 51.5462C216.198 51.4194 216.146 51.2553 216.146 51.0763C216.146 50.8973 216.198 50.7332 216.302 50.5915C216.407 50.4498 216.578 50.3678 216.795 50.3603C218.704 50.2783 220.606 50.1888 222.523 50.1067C224.432 50.0172 226.334 49.9352 228.244 49.8457Z" stroke="#E28C4F" stroke-width="1.56929"/>
<path d="M251.894 49.8679C251.901 50.1737 251.894 50.4944 251.864 50.83C251.827 51.1656 251.76 51.4789 251.648 51.7772C251.536 52.0756 251.372 52.3366 251.148 52.5455C250.932 52.7618 250.641 52.896 250.268 52.9631C249.858 53.0377 249.515 52.993 249.239 52.8289C248.955 52.6573 248.724 52.4261 248.545 52.1203C248.359 51.822 248.224 51.5013 248.127 51.1582C247.807 49.9797 247.59 48.7491 247.478 47.4811C247.367 46.2057 247.322 44.9229 247.337 43.6251C247.352 42.3273 247.396 41.037 247.471 39.7541C247.546 38.4713 247.613 37.2257 247.68 36.01C247.881 31.781 248.254 27.5595 248.799 23.3678C249.343 19.1687 250.044 14.9994 250.917 10.86C250.753 10.9867 250.559 11.024 250.343 10.9569C250.134 10.8972 249.97 10.7705 249.865 10.5765C249.761 10.3826 249.768 10.1738 249.895 9.9351C250.492 8.86108 251.029 7.76468 251.499 6.63845C251.976 5.51967 252.379 4.37107 252.722 3.18517C252.789 2.97633 252.901 2.82716 253.065 2.75257C253.229 2.67799 253.401 2.67053 253.58 2.72274C253.751 2.77495 253.893 2.87191 253.997 3.02108C254.109 3.16279 254.131 3.34179 254.079 3.55063C253.035 7.5633 252.14 11.6058 251.402 15.6856C250.656 19.7579 250.074 23.8601 249.656 27.9846C249.276 31.8258 249.037 35.6967 248.94 39.5901C248.918 40.5895 248.903 41.5964 248.896 42.6033C248.881 43.6176 248.896 44.6245 248.94 45.6389C248.963 46.064 248.985 46.4892 249.015 46.9143C249.037 47.3394 249.075 47.7646 249.119 48.1897C249.149 48.585 249.194 48.9728 249.246 49.3607C249.298 49.7485 249.358 50.1438 249.418 50.5317C249.492 51.4789 249.85 51.2551 250.492 49.8679C250.492 49.6441 250.559 49.4726 250.693 49.3607C250.835 49.2488 250.991 49.1966 251.178 49.1966C251.357 49.1966 251.521 49.2488 251.663 49.3607C251.804 49.4726 251.879 49.6441 251.894 49.8679ZM295.869 1.55921C296.093 1.55176 296.264 1.61142 296.384 1.74568C296.496 1.87247 296.555 2.03656 296.555 2.22302C296.555 2.40948 296.496 2.57357 296.384 2.72274C296.264 2.87191 296.093 2.95395 295.869 2.96141C290.492 3.25229 285.271 4.25919 280.214 5.99702C280.236 6.34757 280.206 6.70557 280.132 7.0785C280.05 7.45142 279.983 7.80943 279.93 8.15252C279.789 9.15196 279.647 10.1589 279.505 11.1732C279.364 12.1876 279.222 13.2019 279.08 14.2163C278.841 16.1406 278.603 18.0723 278.372 20.0264C278.148 21.9731 277.931 23.9123 277.73 25.8441C277.521 27.7982 277.335 29.7449 277.171 31.6915C276.999 33.6382 276.835 35.5849 276.686 37.5315C276.626 38.3818 276.559 39.2321 276.499 40.0898C276.432 40.9475 276.395 41.7978 276.388 42.6555C276.388 42.8569 276.38 43.1552 276.373 43.558C276.358 43.9682 276.358 44.4157 276.365 44.9154C276.365 45.4151 276.395 45.9149 276.44 46.4146C276.492 46.9218 276.567 47.3693 276.671 47.7795C276.783 48.1897 276.932 48.5104 277.119 48.7342C277.32 48.7118 277.499 48.764 277.656 48.8908C277.812 49.0176 277.902 49.1742 277.931 49.3607C277.969 49.5472 277.894 49.7262 277.708 49.8977C277.67 49.9574 277.618 50.017 277.551 50.0543C277.432 50.1662 277.298 50.2259 277.148 50.2408C277.007 50.2557 276.857 50.2333 276.708 50.1662C276.298 49.9872 275.977 49.6739 275.739 49.219C275.5 48.764 275.321 48.2419 275.202 47.6527C275.09 47.0635 275.015 46.4519 274.985 45.8179C274.948 45.1839 274.941 44.5873 274.948 44.0353C274.963 43.4759 274.97 43.0135 274.985 42.6555C275.015 40.597 275.127 38.5459 275.314 36.4873C275.507 34.4288 275.701 32.3777 275.888 30.3341C276.276 26.1499 276.723 21.9731 277.23 17.7889C277.35 16.864 277.469 15.9392 277.581 15.0143C277.7 14.0895 277.82 13.1572 277.946 12.2323C278.014 11.7848 278.073 11.3448 278.133 10.8972C278.193 10.4497 278.252 10.0022 278.319 9.55472C278.349 9.37571 278.409 9.09975 278.491 8.74174C278.58 8.37628 278.662 7.99589 278.737 7.58568C278.819 7.17546 278.856 6.80999 278.841 6.48928C276.835 7.23513 274.859 8.09285 272.934 9.06246C271.003 10.0246 269.123 11.1061 267.303 12.2994C267.393 12.4486 267.422 12.6127 267.4 12.7992C267.378 12.9856 267.281 13.1423 267.102 13.269C266.736 13.5077 266.401 13.642 266.102 13.6867C265.797 13.7315 265.446 13.6793 265.043 13.5301C264.752 13.4182 264.588 13.2243 264.551 12.9483C264.514 12.6649 264.626 12.4337 264.879 12.2547C267.027 10.7406 269.257 9.38317 271.577 8.18235C273.889 6.98154 276.261 5.93735 278.7 5.05725C278.752 4.99758 278.812 4.96029 278.886 4.92299C278.953 4.89316 279.035 4.85587 279.132 4.81112C279.214 4.78128 279.304 4.77382 279.401 4.7962C282.041 3.88626 284.741 3.15533 287.501 2.6034C290.26 2.05893 293.05 1.70838 295.869 1.55921ZM310.659 49.8455C310.883 49.838 311.047 49.8977 311.159 50.032C311.271 50.1662 311.331 50.3228 311.331 50.5093C311.331 50.6958 311.271 50.8598 311.159 51.0016C311.047 51.1358 310.883 51.2104 310.659 51.2253C308.75 51.3074 306.848 51.3894 304.939 51.4789C303.029 51.5609 301.12 51.6504 299.218 51.7325C298.994 51.7399 298.83 51.6803 298.718 51.546C298.614 51.4192 298.562 51.2551 298.562 51.0761C298.562 50.8971 298.614 50.733 298.718 50.5913C298.83 50.4496 298.994 50.3676 299.218 50.3601C301.12 50.2781 303.029 50.1886 304.939 50.1065C306.848 50.017 308.75 49.935 310.659 49.8455Z" stroke="#E28C4F" stroke-width="1.56929"/>
<path d="M349.421 34.9287C349.108 35.4955 348.712 36.0549 348.25 36.6143C347.788 37.1737 347.273 37.6734 346.714 38.1209C346.147 38.5684 345.543 38.9115 344.909 39.1576C344.267 39.4038 343.611 39.4933 342.947 39.4262C342.276 39.3665 341.597 39.098 340.918 38.6281C340.314 38.2179 339.822 37.6883 339.442 37.0618C339.061 36.4278 338.77 35.7267 338.561 34.9511C338.353 34.1828 338.218 33.3699 338.144 32.527C338.069 31.6842 338.039 30.834 338.054 29.9837C338.069 29.1334 338.099 28.313 338.144 27.5373C337.331 28.7978 336.63 30.103 336.026 31.4679C335.421 32.8254 334.922 34.2425 334.519 35.7118C334.467 35.9132 334.333 36.0549 334.116 36.1295C333.907 36.2115 333.699 36.219 333.505 36.1593C333.311 36.0922 333.191 35.943 333.162 35.7118C333.012 34.6453 332.9 33.5862 332.826 32.5345C332.542 33.2878 332.199 34.0113 331.812 34.6975C331.424 35.3836 330.946 35.9356 330.372 36.3458C330.178 36.4875 329.969 36.5024 329.753 36.398C329.537 36.2936 329.395 36.137 329.328 35.9356C328.619 33.4146 328.425 30.8638 328.754 28.2906C328.791 28.0743 328.88 27.9102 329.022 27.7984C329.164 27.679 329.32 27.6194 329.499 27.6194C329.678 27.6194 329.828 27.6716 329.962 27.776C330.096 27.8879 330.163 28.052 330.163 28.2906C330.163 28.4473 330.163 28.6113 330.163 28.768C330.163 28.9246 330.163 29.0887 330.163 29.2453C330.163 29.4169 330.118 29.5586 330.036 29.6779C329.939 31.2442 330.051 32.7881 330.387 34.3022C330.611 33.9367 330.797 33.5265 330.961 33.079C331.118 32.6315 331.275 32.2362 331.424 31.8931C331.655 31.3337 331.894 30.7743 332.125 30.2224C332.356 29.6704 332.595 29.1111 332.826 28.5591C332.923 28.3354 333.08 28.216 333.288 28.2011C333.505 28.1862 333.699 28.2459 333.878 28.3801C334.064 28.5069 334.146 28.6859 334.139 28.9097C334.124 29.4616 334.124 30.0135 334.139 30.5655C334.146 31.1099 334.168 31.6544 334.198 32.1989C335.228 29.5511 336.63 27.06 338.397 24.7329C338.524 24.5614 338.696 24.457 338.905 24.4271C339.121 24.3973 339.307 24.4346 339.479 24.539C339.65 24.6434 339.725 24.8299 339.703 25.0835C339.643 26.1351 339.583 27.2017 339.539 28.2906C339.486 29.3721 339.509 30.4536 339.583 31.5276C339.665 32.6016 339.852 33.6533 340.15 34.69C340.314 35.2345 340.516 35.7342 340.777 36.1966C341.03 36.6591 341.336 37.0394 341.702 37.3452C342.06 37.651 342.492 37.845 342.984 37.927C343.477 38.0165 344.043 37.9494 344.685 37.7405C345.244 37.5466 345.744 37.2632 346.169 36.8977C346.594 36.5323 346.975 36.1146 347.303 35.6447C347.631 35.1748 347.937 34.7049 348.213 34.2276C348.325 34.0262 348.474 33.9069 348.653 33.8845C348.824 33.8547 348.996 33.892 349.153 33.9889C349.309 34.0859 349.421 34.2127 349.488 34.3842C349.548 34.5558 349.533 34.7348 349.421 34.9287ZM370.596 30.8563C370.7 30.655 370.842 30.5431 371.006 30.5058C371.177 30.476 371.342 30.5058 371.506 30.6028C371.662 30.6997 371.774 30.834 371.849 31.0055C371.916 31.1696 371.893 31.3561 371.789 31.5574C371.528 32.0721 371.2 32.624 370.827 33.2132C370.447 33.8024 370.021 34.3842 369.544 34.9585C369.059 35.5328 368.545 36.0624 367.993 36.5472C367.441 37.032 366.852 37.4198 366.24 37.7182C365.621 38.0165 364.979 38.188 364.323 38.2253C363.659 38.2626 362.988 38.1209 362.294 37.8002C361.72 37.5317 361.25 37.1513 360.885 36.6516C360.519 36.1519 360.236 35.585 360.049 34.9511C359.87 34.3171 359.759 33.6607 359.721 32.982C359.684 32.3033 359.699 31.6395 359.781 30.9981C359.863 30.3492 359.99 29.7749 360.154 29.2602C360.318 28.7978 360.519 28.3055 360.773 27.8058C361.019 27.2986 361.317 26.8064 361.66 26.3365C361.996 25.8592 362.376 25.4415 362.787 25.0835C363.204 24.718 363.659 24.457 364.144 24.2854C364.763 24.0691 365.337 24.0393 365.874 24.1885C366.412 24.3376 366.784 24.7329 366.986 25.3669C367.202 25.9934 367.247 26.605 367.12 27.1868C367.001 27.776 366.762 28.3205 366.404 28.8276C366.046 29.3274 365.621 29.7898 365.121 30.2C364.621 30.6028 364.092 30.9533 363.533 31.2442C362.973 31.5276 362.436 31.7439 361.929 31.8782C361.728 31.9304 361.556 31.9154 361.414 31.8185C361.28 31.7215 361.183 31.6022 361.131 31.4679C361.109 31.6544 361.094 31.8483 361.094 32.0497C361.086 32.2436 361.086 32.445 361.101 32.6464C361.131 33.1909 361.22 33.7204 361.37 34.25C361.519 34.7795 361.735 35.2419 362.018 35.6522C362.294 36.0624 362.66 36.3682 363.107 36.5696C363.555 36.7709 364.107 36.8082 364.756 36.6814C365.442 36.5472 366.083 36.2712 366.665 35.8685C367.254 35.4657 367.791 34.9809 368.269 34.414C368.753 33.8547 369.186 33.258 369.574 32.6389C369.954 32.0124 370.297 31.4232 370.596 30.8563ZM361.959 28.5591C361.787 28.9022 361.646 29.2528 361.519 29.6257C361.399 29.9912 361.302 30.3641 361.228 30.7445C361.325 30.64 361.437 30.5729 361.563 30.5431C361.869 30.4536 362.235 30.3193 362.645 30.1254C363.063 29.9315 363.48 29.6928 363.898 29.4169C364.316 29.1334 364.689 28.8127 365.017 28.4622C365.337 28.1116 365.569 27.7312 365.71 27.321C365.852 26.9108 365.845 26.4931 365.695 26.0531C365.599 25.7697 365.449 25.6056 365.248 25.5757C365.047 25.5459 364.815 25.6056 364.562 25.7547C364.308 25.9039 364.04 26.1053 363.764 26.3589C363.488 26.6125 363.227 26.8884 362.981 27.1718C362.734 27.4627 362.526 27.7312 362.347 27.9774C362.16 28.231 362.033 28.4249 361.959 28.5591ZM399.855 10.3679C400.176 10.3902 400.385 10.532 400.489 10.8005C400.586 11.0615 400.542 11.3226 400.355 11.5687C400.236 11.7104 400.131 11.8297 400.049 11.9118C399.967 11.9864 399.87 12.046 399.758 12.0833C399.654 12.1206 399.505 12.1654 399.311 12.2176C399.095 12.2847 398.908 12.2549 398.759 12.143C398.61 12.0237 398.513 11.8819 398.468 11.7104C396.7 11.6209 394.933 11.5836 393.165 11.5985C391.39 11.606 389.622 11.6656 387.855 11.7701C387.497 14.5297 387.183 17.2968 386.915 20.0714C386.646 22.8459 386.46 25.6279 386.341 28.4174C386.244 30.6102 386.206 32.803 386.229 35.0107C386.251 37.211 386.333 39.4038 386.482 41.5966C386.505 42.0142 386.535 42.4319 386.572 42.8421C386.609 43.2598 386.646 43.67 386.691 44.0877C386.699 44.1548 386.721 44.3115 386.751 44.5651C386.773 44.8261 386.81 45.1244 386.848 45.4675C386.893 45.8181 386.945 46.1612 387.012 46.4968C387.072 46.8399 387.146 47.1308 387.228 47.3769C387.303 47.623 387.392 47.7573 387.489 47.7871C387.788 47.899 388.034 47.8468 388.243 47.6454C388.444 47.444 388.601 47.1382 388.72 46.728C388.832 46.3178 388.929 45.8628 388.988 45.3631C389.055 44.8634 389.093 44.3711 389.108 43.8714C389.123 43.3792 389.13 42.9391 389.123 42.5513C389.123 42.1634 389.115 41.8875 389.1 41.7234C389.093 41.4996 389.152 41.3355 389.294 41.2236C389.428 41.1118 389.592 41.0596 389.771 41.0596C389.951 41.0596 390.115 41.1118 390.264 41.2236C390.413 41.3355 390.495 41.4996 390.502 41.7234C390.517 41.9098 390.51 42.2231 390.488 42.6855C390.465 43.1405 390.428 43.6775 390.376 44.2966C390.323 44.9156 390.241 45.5496 390.137 46.1985C390.033 46.8474 389.891 47.4589 389.727 48.0333C389.555 48.6076 389.346 49.0849 389.093 49.4727C388.847 49.8606 388.548 50.0993 388.205 50.1738C387.87 50.2559 387.474 50.1216 387.027 49.7711C386.728 49.525 386.482 49.2042 386.296 48.8015C386.102 48.4062 385.945 47.9661 385.833 47.4962C385.714 47.0189 385.625 46.5565 385.565 46.1015C385.505 45.6391 385.453 45.2363 385.401 44.8858C385.207 43.5209 385.08 42.1485 385.006 40.7538C384.938 39.359 384.886 37.9717 384.856 36.5845C384.759 32.4525 384.864 28.3205 385.177 24.1959C385.483 20.0714 385.908 15.9617 386.452 11.867C383.842 12.0684 381.232 12.3742 378.614 12.777C378.83 12.8441 378.957 12.9858 379.009 13.2021C379.054 13.4184 379.024 13.6272 378.919 13.8211C378.815 14.0225 378.629 14.1269 378.36 14.1344C377.607 14.1792 376.883 14.1419 376.197 14.0374C375.511 13.933 374.81 13.754 374.101 13.5154C373.9 13.4408 373.758 13.2991 373.669 13.0977C373.587 12.8963 373.572 12.6949 373.639 12.5085C373.698 12.3145 373.855 12.1952 374.101 12.1579C376.175 11.7402 378.256 11.3897 380.351 11.1137C382.44 10.8303 384.536 10.6065 386.646 10.4499C386.848 8.95821 387.057 7.46651 387.28 5.97481C387.504 4.47566 387.735 2.98396 387.967 1.49226C387.996 1.32817 388.078 1.20138 388.205 1.11934C388.332 1.03729 388.481 1 388.645 1C388.809 1 388.959 1.04475 389.085 1.12679C389.212 1.2163 389.294 1.33563 389.324 1.49226C389.354 1.71602 389.391 1.93977 389.428 2.16352C389.466 2.38728 389.503 2.60358 389.548 2.81987C389.578 3.02125 389.54 3.20026 389.436 3.34943C389.331 3.49859 389.205 3.59556 389.055 3.64777C388.884 4.76654 388.712 5.88531 388.541 7.00409C388.369 8.1154 388.205 9.24163 388.049 10.3679C390.018 10.2485 391.987 10.1963 393.956 10.1963C395.917 10.1963 397.886 10.2485 399.855 10.3679Z" stroke="#E28C4F" stroke-width="1.56929"/>
</svg>
